<?xml version="1.0" encoding="utf-8"?>
<!-- Generator: Adobe Illustrator 16.0.0, SVG Export Plug-In . SVG Version: 6.00 Build 0)  -->
<!DOCTYPE svg PUBLIC "-//W3C//DTD SVG 1.1//EN" "http://www.w3.org/Graphics/SVG/1.1/DTD/svg11.dtd">
<svg version="1.1" id="Layer_1" xmlns="http://www.w3.org/2000/svg" xmlns:xlink="http://www.w3.org/1999/xlink" x="0px" y="0px"
	 width="801.576px" height="204.936px" viewBox="0 0 801.576 204.936" enable-background="new 0 0 801.576 204.936"
	 xml:space="preserve">
<g id="sky">
	<path d="M574.401,6.986c0,0,6.91-2.616,11.203,0.332c0,0,0.774-5.354,6.228-7.318c0,0-6.226,1.081-8.478,4.922
		C583.354,4.922,577.237,4.348,574.401,6.986z"/>
	<path fill="#808080" d="M664.819,45.051c0,0,6.262,0.636,8.414,4.516c0,0,2.626-3.787,7.529-3.21c0,0-5.156-1.544-8.335,0.527
		C672.428,46.884,667.984,44.12,664.819,45.051z"/>
</g>
<g id="hills">
	
		<linearGradient id="SVGID_1_" gradientUnits="userSpaceOnUse" x1="401.0771" y1="126.1443" x2="401.0771" y2="62.1443" gradientTransform="matrix(1 0 0 -1 0 205.9351)">
		<stop  offset="0" style="stop-color:#D9D9D9"/>
		<stop  offset="0.3338" style="stop-color:#E1E1E1"/>
		<stop  offset="0.8611" style="stop-color:#F8F8F8"/>
		<stop  offset="1" style="stop-color:#FFFFFF"/>
	</linearGradient>
	<path opacity="0.3" fill="url(#SVGID_1_)" enable-background="new    " d="M786.55,107.361
		c-19.758-0.754-33.744-10.536-52.477-13.039c-9.711-1.299-17.706-3.671-27.569-4.316c-13.896-0.909-26.834-4.481-39.605-8.342
		c-13.089-3.955-29.424-14.376-44.209-13.919c-20.961,0.648-45.915,12.762-64.627,18.602c-19.709,6.146-40.713,12.839-62.893,9.244
		c-8.247-1.336-13.522-3.709-22.191-3.566c-6.439,0.105-12.635,1.361-19.025,1.432c-11.881,0.132-22.572-4.919-34.201-6.464
		c-31.937-4.242-64.305-2.654-95.646,2.946c-14.507,2.593-25.003,2.287-39.173,1.373c-6.993-0.452-15.298-0.477-22.273-0.054
		c-7.038,0.429-13.815,3.217-20.921,2.907c-12.502-0.543-28.914-4.713-39.451-9.048c-8.191-3.371-15.858-9.188-26.083-8.372
		c-7.859,0.625-13.116,2.906-21.79,1.43c-13.479-2.293-24.381-10.719-37.974-12.596c-17.844-2.464-39.49,9.986-55.838,14.006
		c-19.65,4.831-39.547,5.958-60.025,6.167v72.902l801,4.137v-54.104v-0.694C796.102,107.083,792.477,107.586,786.55,107.361z"/>
	<path opacity="0.8" fill="#CCCCCC" enable-background="new    " d="M625.435,137.792c-26.671-0.004-53.61,2.812-80.233,0.822
		c-18.953-1.417-37.021-8.837-55.936-9.894c-21.474-1.2-45.034-1.371-66.272,2.017c-14.694,2.343-25.437-0.301-40.416-2.242
		c-18.506-2.398-35.981-4.591-54.777-4.696c-15.82-0.088-30.187,4.153-45.966,1.742c-19.666-3.005-38.441-0.935-58.034,0.326
		c-19.543,1.257-39.079-4.075-58.729-4.068c-22.245,0.009-42.85,7.335-64.717,6.993c-13.648-0.213-26.604-3.833-40.252-4.022
		c-19.925-0.277-40.323-0.082-60.102,2.022v38c12.226,0,25.041,1.519,37.174,2.023c59.808,2.489,120.02,0.977,179.942,0.977
		c101.574,0,203.058-2,304.632-2c37.734,0,75.47,0.086,113.163-1.674c40.584-1.895,82.906-0.488,122.934-8.62
		C714.674,145.749,670.241,137.798,625.435,137.792z"/>
</g>
<g id="Layer_1_1_">
	<polygon fill="#4D4D4D" points="64.203,125.458 51.846,101.457 46.716,130.447 40.32,138.766 40.32,140.192 41.271,139.36 
		41.271,154.806 65.629,157.54 	"/>
	<rect x="62.42" y="124.032" fill="#262626" width="56.321" height="31.844"/>
	<polygon points="46.618,130.092 48.043,130.449 52.915,106.684 62.183,125.101 116.959,126.527 116.127,117.854 81.788,113.458 
		51.964,101.813 46.499,128.073 	"/>
	<polygon fill="#666666" points="44.441,130.447 50.942,99.889 120.187,101.839 121.161,125.247 61.996,123.62 52.568,102.815 
		46.716,130.447 	"/>
	<g>
		<rect x="141.147" y="110.168" width="131.562" height="4.52"/>
		<polygon points="269.129,110.806 251.687,102.783 159.943,102.783 144.77,111.502 		"/>
		<rect x="261.977" y="114.643" width="1.568" height="36.448"/>
		<rect x="240.639" y="114.643" width="1.571" height="36.448"/>
		<rect x="219.305" y="114.643" width="1.568" height="36.448"/>
		<rect x="197.97" y="114.643" width="1.57" height="36.448"/>
		<rect x="176.637" y="114.643" width="1.566" height="36.448"/>
		<path d="M140.329,150.596c0.43-2.244,0.208-4.635,0.208-6.919c0-3.03,0.188-6.043,0.183-9.068c-0.005-2.368-0.051-4.739,0-7.105
			c0.059-2.717,2.132-4.399,2.51-6.922c0.53-3.505-1.769-6.449,2.788-7.485c5.887-1.344,12.056-2.136,18.061-2.749
			c3.741-0.379,8.304-1.147,11.833,0.372l-0.544,1.644c0.774,0.625,0.844,1.662,1.494,2.325c0.259,0.27,0.852,0.242,1.114,0.543
			c0.287,0.322,0.171,0.915,0.48,1.324c1.618,2.134,6.786,0.669,9.273,0.769c2.935,0.123,7.047-0.787,9.664,0.66
			c2.633,1.451,4.663,6.189,7.858,5.875c3.055-0.296,6.268-1.67,9.024,0.388c1.604,1.192,1.356,1.255,3.595,1.242
			c1.468-0.005,3.173,0.236,4.56-0.154c2.406-0.688,4.957-1.652,7.469-0.347c1.438,0.742,2.742,1.475,4.509,1.575
			c1.789,0.104,3.541-1.356,5.448-1.439c2.523-0.107,5.213,0.021,7.735,0.184c3.709,0.251,4.607,1.42,5.082,5.298
			c0.258,2.134,0.509,4.173,0.923,6.263c0.137,0.69,0.098,3.74,0.561,4.272c0.414,0.479,2.65,0.761,3.281,1.079
			c1.536,0.787,1.296,0.951,1.852,2.443c0.402,1.083,1.449,2.316,1.231,3.623c-0.215,1.288,4.833,5.315,3.331,5.784
			c-7.766,2.43-21.341-0.168-29.293,1.488c-6.663,1.388-13.001,3.5-19.848,3.955c-8.085,0.531-16.054,2.406-24.165,2.379
			c-3.623-0.014-7.106-0.195-10.715,0.265c-3.755,0.479-7.481,1.271-11.291,0.864c-3.054-0.322-6.104-1.324-9.098-1.983
			c-2.653-0.583-5.287-1.033-7.864-1.896c-4.017-1.349-8.401-2.116-12.274-3.777c-2.095-0.897-4.467-1.99-5.189-4.323
			C135.436,149.813,138.672,150.824,140.329,150.596z"/>
	</g>
	<g>
		<path d="M54.795,57.432c0,2.215,1.796,4.008,4.006,4.008c2.213,0,4.007-1.793,4.007-4.008c0-2.214-1.794-4.006-4.007-4.006
			C56.591,53.427,54.795,55.219,54.795,57.432z"/>
		<g>
			<path d="M58.844,42.153c-8.424,0-15.279,6.854-15.279,15.279c0,8.425,6.855,15.277,15.279,15.277
				c8.423,0,15.276-6.854,15.276-15.277C74.121,49.006,67.267,42.153,58.844,42.153z M58.844,72.092
				c-8.084,0-14.661-6.576-14.661-14.659c0-8.084,6.577-14.661,14.661-14.661c8.083,0,14.659,6.577,14.659,14.661
				C73.503,65.515,66.927,72.092,58.844,72.092z"/>
			<path d="M69.881,38.31c0,0-3.021-0.729-4.472-2.176L61.18,48.945l1.568,0.725L69.881,38.31z"/>
			<path d="M75.754,43.238c0,0-2.59-1.718-3.457-3.574l-8.353,10.59l1.223,1.221L75.754,43.238z"/>
			<path d="M79.595,49.876c0,0-1.85-2.502-2.03-4.54l-11.474,7.091l0.735,1.57L79.595,49.876z"/>
			<path d="M80.929,57.423c0,0-0.883-2.978-0.354-4.957l-13.208,2.74l0.158,1.727L80.929,57.423z"/>
			<path d="M79.601,64.977c0,0,0.188-3.102,1.363-4.779L67.62,58.255l-0.445,1.678L79.601,64.977z"/>
			<path d="M75.769,71.625c0,0,1.24-2.85,2.915-4.026l-11.876-6.39l-0.994,1.419L75.769,71.625z"/>
			<path d="M69.896,76.555c0,0,2.137-2.255,4.111-2.784l-8.972-10.068l-1.415,0.999L69.896,76.555z"/>
			<path d="M62.69,79.18c0,0,2.782-1.387,4.816-1.204L62.521,65.44l-1.678,0.453L62.69,79.18z"/>
			<path d="M55.025,79.185c0,0,3.087-0.354,4.933,0.515l-0.402-13.486l-1.727-0.146L55.025,79.185z"/>
			<path d="M47.811,76.569c0,0,3.024,0.724,4.464,2.169l4.239-12.812l-1.573-0.729L47.811,76.569z"/>
			<path d="M41.938,71.644c0,0,2.59,1.709,3.448,3.566l8.367-10.598l-1.23-1.218L41.938,71.644z"/>
			<path d="M38.099,65.002c0,0,1.847,2.497,2.016,4.532l11.487-7.098l-0.734-1.562L38.099,65.002z"/>
			<path d="M36.761,57.453c0,0,0.883,2.973,0.35,4.947l13.218-2.741l-0.158-1.719L36.761,57.453z"/>
			<path d="M38.085,49.895c0,0-0.185,3.102-1.363,4.771l13.358,1.945l0.437-1.673L38.085,49.895z"/>
			<path d="M41.918,43.254c0,0-1.234,2.841-2.916,4.011l11.889,6.398l0.984-1.42L41.918,43.254z"/>
			<path d="M47.789,38.318c0,0-2.134,2.251-4.109,2.775l8.979,10.076l1.413-0.999L47.789,38.318z"/>
			<path d="M54.996,35.691c0,0-2.777,1.388-4.811,1.201l4.991,12.539l1.667-0.451L54.996,35.691z"/>
			<path d="M62.664,35.686c0,0-3.081,0.351-4.932-0.519l0.402,13.492l1.724,0.146L62.664,35.686z"/>
			<polygon points="42.085,59.096 23.474,56.922 24.804,64.169 23.236,71.542 42.329,66.103 			"/>
		</g>
		<path d="M60.303,56.607h0.75l9.733,97.977l-1.644,0.165c0,0-9.442-95.025-9.586-96.491c-0.378,0-0.754,0-0.754,0v-1.649
			L60.303,56.607L60.303,56.607z"/>
		<path d="M57.394,56.607h1.502v1.649c0,0-0.376,0-0.753,0c-0.147,1.466-9.587,96.491-9.587,96.491l-1.644-0.165l9.734-97.977
			L57.394,56.607L57.394,56.607z"/>
		<rect x="51.636" y="115.58" width="14.283" height="0.824"/>
		<rect x="51.636" y="118.324" width="14.283" height="0.824"/>
		<rect x="54.523" y="86.859" width="9.376" height="0.824"/>
		<rect x="53.94" y="88.304" width="9.959" height="0.823"/>
		<path d="M60.997,60.198c0,0-6.651,28.609-6.651,28.612c0.064-0.039,12.44,29.943,12.44,29.943
			c-0.017,0.355-18.862,35.354-18.862,35.354l-0.729-0.393c0,0,18.843-34.987,18.846-34.993c-0.16,0-12.479-29.849-12.479-29.849
			s0,0,0-0.004c0-0.334,6.63-28.859,6.63-28.859L60.997,60.198z"/>
		<path d="M63.966,88.625c-0.021,0.249-12.479,30.431-12.481,30.439c0.134-0.065,18.828,34.65,18.828,34.65l-0.727,0.393
			L50.74,119.11c0-0.395,12.437-30.538,12.446-30.548c-0.082,0-6.676-28.364-6.676-28.364l0.808-0.188L63.966,88.625z"/>
	</g>
	<g>
		<path d="M112.9,181.378c0,11.507,9.333,20.839,20.842,20.839l0,0c11.508,0,20.841-9.332,20.841-20.839V77.17
			c0-11.51-9.333-20.842-20.841-20.842l0,0c-11.51,0-20.842,9.332-20.842,20.842V181.378z"/>
		<rect x="110.559" y="74.391" width="46.533" height="1.771"/>
		<rect x="110.559" y="88.045" width="46.533" height="1.771"/>
		<rect x="110.559" y="101.699" width="46.533" height="1.77"/>
		<rect x="110.559" y="115.353" width="46.533" height="1.767"/>
		<rect x="110.559" y="129.004" width="46.533" height="1.772"/>
		<rect x="110.559" y="142.658" width="46.533" height="1.771"/>
		<rect x="110.559" y="156.314" width="46.533" height="1.77"/>
	</g>
	<path d="M0,155.721c22.022-5.422,58.421-0.476,85.91-1.254c70.952-2.011,141.791-3.28,212.889-3.976
		c110.509-1.079,182.223,3.548,273.443,0.331c57.398-2.025,114.519,0.242,171.893-0.155c13.431-0.094,32.103,1.246,57.441,0.366
		v53.9H0V155.721z"/>
	<path d="M707.67,150.926c1.188-1.44,2.535-2.565,3.759-3.428c0.08,0.721,0.125,1.455,0.133,2.188
		C710.233,150.028,708.93,150.436,707.67,150.926L707.67,150.926z M710.41,139.581c1.399,0.17,3.141,0.433,5.114,0.853
		c-0.821,1.61-0.938,3.294-0.729,4.813c-0.969,0.28-1.839,0.595-2.664,0.919C711.88,144.253,711.344,142.062,710.41,139.581
		L710.41,139.581z M712.312,149.51c0.023-0.778-0.007-1.632-0.094-2.547c1.256-0.804,2.271-1.286,2.612-1.438
		c0.211,1.283,0.635,2.428,1.035,3.295C714.662,149,713.481,149.237,712.312,149.51L712.312,149.51z M716.038,148.798
		c-0.43-1.224-0.6-2.356-0.611-3.42c1.177-0.204,4.503-0.662,8.647-0.189c0.021,0.151,0.039,0.243,0.039,0.243
		c-0.008-0.082-0.001-0.155-0.01-0.241c3.149,0.36,6.758,1.258,10.263,3.209c0.076,0.182,0.151,0.367,0.229,0.555
		C728.794,148.202,722.251,147.895,716.038,148.798L716.038,148.798z M732.643,133.507c0.569,0.136,1.213,0.358,1.803,0.729
		c0.103,0.943,0.209,1.856,0.318,2.703C734.16,135.819,733.441,134.665,732.643,133.507L732.643,133.507z M732.854,145.275
		c-0.734-0.265-1.507-0.489-2.285-0.692c-1.771-1.033-3.855-2.055-6.231-2.931c0.185-0.907,0.446-1.729,0.777-2.461
		c1.642,0.816,3.389,1.859,5.229,3.146c-0.427,0.104-0.766,0.162-0.766,0.162C730.693,143.265,731.784,144.21,732.854,145.275
		L732.854,145.275z M730.108,135.783c-0.577-0.316-1.172-0.582-1.796-0.778c0.225-0.186,0.443-0.355,0.657-0.508
		C729.349,134.9,729.733,135.325,730.108,135.783L730.108,135.783z M726.343,137.081c0.532,0.448,1.063,0.934,1.592,1.462
		c-0.63-0.354-1.274-0.685-1.932-1.004C726.115,137.376,726.23,137.232,726.343,137.081L726.343,137.081z M728.537,134.062
		c-0.411,0.216-0.784,0.455-1.125,0.716c-0.329-0.062-0.666-0.106-1.004-0.126c-2.814-1.912-6.061-3.203-9.744-3.23
		c0.156-0.021,0.257-0.036,0.257-0.036c-3.219-0.189-5.752,0.162-7.737,0.891c2.856-3.428,6.435-4.33,6.435-4.33
		S722.418,127.915,728.537,134.062L728.537,134.062z M724.62,135.742c0.355,0.255,0.719,0.548,1.083,0.834
		c-0.145,0.205-0.271,0.416-0.388,0.631c-1.124-0.514-2.271-0.973-3.447-1.339C722.564,135.763,723.555,135.666,724.62,135.742
		L724.62,135.742z M724.146,142.987c0.686,0.264,1.381,0.536,2.079,0.843c-0.701-0.057-1.421-0.078-2.148-0.074
		C724.084,143.489,724.123,143.244,724.146,142.987L724.146,142.987z M724.561,138.927c-0.289,0.889-0.461,1.782-0.543,2.61
		c-2.064-0.741-4.341-1.377-6.839-1.801c0.785-1.164,1.683-2.064,2.406-2.687C721.101,137.461,722.771,138.074,724.561,138.927
		L724.561,138.927z M718.888,144.278c-1.246,0.23-2.39,0.496-3.455,0.789c0.043-1.679,0.513-3.15,1.182-4.388
		c2.247,0.522,4.734,1.243,7.325,2.226c-0.004,0.304,0.005,0.59,0.015,0.856c-1.729,0.019-3.524,0.201-5.396,0.625
		C718.759,144.323,718.888,144.278,718.888,144.278L718.888,144.278z M718.96,136.903c-1.306,0.808-2.254,1.709-2.912,2.657
		c-1.818-0.25-3.754-0.386-5.785-0.387c-0.272-0.699-0.582-1.425-0.916-2.168C710.759,136.511,714.095,135.734,718.96,136.903
		L718.96,136.903z M746.431,145.936c9.259-9.283,18.92-11.487,25.908-11.493c-0.025,1.247,0.052,2.386,0.171,3.471
		c-10.635-0.347-19.473,3.893-25.119,7.624C747.072,145.667,746.744,145.799,746.431,145.936L746.431,145.936z M772.375,133.238
		c-9.833-1.033-18.081,3.122-23.87,7.557l0.022-0.02c0.373-0.287,0.755-0.575,1.154-0.858l-0.335,0.077
		c10.265-9.883,20.11-9.576,23.245-9.15C772.485,131.676,772.419,132.462,772.375,133.238L772.375,133.238z M703.659,153.712
		c-2.046,6.062,2.696,12.456,2.696,12.456c-2.806-5.838-1.896-10.354,0.166-13.656c1.461-0.542,3.14-1.036,5.008-1.469
		c-0.121,2.078-0.608,4.115-1.687,5.864c0,0,1.877-1.858,2.365-6.007c1.357-0.289,2.789-0.55,4.359-0.74
		c0.122,0.197,0.195,0.312,0.195,0.312c-0.056-0.11-0.084-0.209-0.141-0.318c4.687-0.562,10.329-0.598,17.047,0.342l-0.121,0.013
		l0.622,5.304l1.327-0.156c0.179,1.283,0.288,2.868,0.275,5.753c-0.022,3.15,1.146,3.306,1.541,3.271
		c-0.29-0.018-0.867-0.464,0.388-4.63c0.311-1.032,0.513-2.027,0.646-2.975l2.161-0.255l-0.212-1.818
		c6.348,10.254,10.668,22.085,10.668,22.085c0.71-7.55-2.364-14.895-6.224-20.927l0.202-0.022l-0.057-0.47l2.265-0.266l-0.553-4.709
		c3.102-1.255,7.772-3.09,10.521-3.905c4.39-1.295,7.892,2.084,7.892,2.084s3.052,7.395-7.531,11.94c0,0,14.952-4.954,6.112-13.938
		l0.058,0.116c-2.385-2.335-6.235-2.426-10.169-1.605c11.612-3.737,18.294,0.146,18.294,0.146s7.83,8.459-8.107,20.898
		c0,0,22.717-14.177,5.814-22.635c0,0,0.111,0.098,0.291,0.247c-2.941-1.766-6.557-2.174-10.311-1.786
		c4.717-1.74,9.237-2.437,13.315-2.536c1.606,8.451,7.204,11.421,7.204,11.421c-3.829-3.039-5.48-7.492-6.146-11.442
		c10.084,0.005,17.179,3.561,17.179,3.561c-6.13-3.427-11.995-4.974-17.422-5.308c-0.136-1.281-0.179-2.474-0.178-3.491
		c5.45,0.168,9.021,1.582,9.021,1.582c-3.114-1.425-6.12-2.283-8.995-2.69c0.06-1.435,0.192-2.323,0.192-2.323l-0.948-1.004
		c-14.937-2.96-25.451,7.692-30.427,14.352c6.56-22.48,28.291-23.713,28.291-23.713c-18.665,0.624-26.712,12.612-30.121,21.439
		c-0.097-0.408-0.2-0.835-0.312-1.262c3.323-9.926,11.28-15.634,11.28-15.634c-5.505,3.077-8.774,6.925-10.722,10.592
		c2.577-12.188,8.685-25.414,8.685-25.414c-7.352,6.956-10.344,16.424-11.505,24.24c-0.484-1.02-1.033-2.047-1.656-3.062
		c-0.767-15.352,2.167-31.908,2.167-31.908c-4.559,7.365-5.045,19.054-4.438,28.72c-4.446-5.392-11.549-9.834-22.906-10.271
		c0,0,15.525,0.95,23.243,14.446c0.016,0.152,0.032,0.296,0.048,0.443c-0.342-0.062-0.711-0.084-1.096-0.077l0.129-0.039
		c-0.375,0.019-0.729,0.047-1.073,0.085c-5.514-7.737-15.485-15.586-33.521-17.042c1.284,0.143,18.1,2.229,28.63,14.584
		c-2.544-1.743-5.486-2.887-8.836-2.865c0.146-0.021,0.242-0.037,0.242-0.037c-9.103-0.437-12.728,3.246-13.892,7.644
		c-4.908,6.055-0.697,17.019-0.697,17.019c-1.213-5.266-0.84-9.218,0.258-12.177c0.208,4.29,1.699,8.113,1.812,8.439
		c-1.1-5.623-0.508-9.754,0.799-12.783c2.913-3.229,6.517-4.054,6.517-4.054s4.621,0.037,9.863,3.282
		c-0.773,0.228-1.466,0.479-2.115,0.746c-3.989-1.138-8.209-1.264-12.321,0.547l-0.429,1.056c0,0,0.325,0.698,0.763,1.85
		c-0.832,0.019-1.68,0.057-2.547,0.123c0,0,0.996,0.02,2.663,0.188c0.63,1.703,1.435,4.247,1.84,7.03
		c-3.853,1.677-6.058,3.813-7.169,6.064c-2.283,1.263-4.373,2.846-6.167,4.825C697.963,157.399,699.743,155.579,703.659,153.712
		L703.659,153.712z M737.446,164.655l-0.131,0.022L737.446,164.655L737.446,164.655z"/>
	<g>
		<g>
			<rect x="193.872" y="143.861" width="17.123" height="0.711"/>
			<rect x="193.872" y="147.35" width="17.123" height="0.714"/>
			<path d="M211.557,152.379c0,0.256-0.21,0.464-0.47,0.464l0,0c-0.253,0-0.463-0.208-0.463-0.464v-9.303
				c0-0.257,0.21-0.464,0.463-0.464l0,0c0.26,0,0.47,0.207,0.47,0.464V152.379z"/>
		</g>
		<g>
			<rect x="210.98" y="143.861" width="17.119" height="0.711"/>
			<rect x="210.98" y="147.35" width="17.119" height="0.714"/>
			<path d="M228.66,152.379c0,0.256-0.205,0.464-0.463,0.464l0,0c-0.255,0-0.465-0.208-0.465-0.464v-9.303
				c0-0.257,0.21-0.464,0.465-0.464l0,0c0.258,0,0.463,0.207,0.463,0.464V152.379z"/>
		</g>
		<g>
			<rect x="228.084" y="143.861" width="17.123" height="0.711"/>
			<rect x="228.084" y="147.35" width="17.123" height="0.714"/>
			<path d="M245.769,152.379c0,0.256-0.21,0.464-0.464,0.464l0,0c-0.258,0-0.469-0.208-0.469-0.464v-9.303
				c0-0.257,0.211-0.464,0.469-0.464l0,0c0.254,0,0.464,0.207,0.464,0.464V152.379z"/>
		</g>
		<g>
			<rect x="245.192" y="143.861" width="17.123" height="0.711"/>
			<rect x="245.192" y="147.35" width="17.123" height="0.714"/>
			<path d="M262.873,152.379c0,0.256-0.205,0.464-0.465,0.464l0,0c-0.253,0-0.463-0.208-0.463-0.464v-9.303
				c0-0.257,0.21-0.464,0.463-0.464l0,0c0.26,0,0.465,0.207,0.465,0.464V152.379z"/>
		</g>
		<g>
			<rect x="262.301" y="143.861" width="17.119" height="0.711"/>
			<rect x="262.301" y="147.35" width="17.119" height="0.714"/>
			<path d="M279.981,152.379c0,0.256-0.205,0.464-0.463,0.464l0,0c-0.26,0-0.465-0.208-0.465-0.464v-9.303
				c0-0.257,0.205-0.464,0.465-0.464l0,0c0.258,0,0.463,0.207,0.463,0.464V152.379z"/>
		</g>
		<g>
			<rect x="279.405" y="143.861" width="17.123" height="0.711"/>
			<rect x="279.405" y="147.35" width="17.123" height="0.714"/>
			<path d="M297.089,152.379c0,0.256-0.21,0.464-0.464,0.464l0,0c-0.259,0-0.465-0.208-0.465-0.464v-9.303
				c0-0.257,0.206-0.464,0.465-0.464l0,0c0.254,0,0.464,0.207,0.464,0.464V152.379z"/>
		</g>
		<g>
			<rect x="296.513" y="143.861" width="17.123" height="0.711"/>
			<rect x="296.513" y="147.35" width="17.123" height="0.714"/>
			<path d="M314.199,152.379c0,0.256-0.21,0.464-0.471,0.464l0,0c-0.253,0-0.463-0.208-0.463-0.464v-9.303
				c0-0.257,0.21-0.464,0.463-0.464l0,0c0.261,0,0.471,0.207,0.471,0.464V152.379z"/>
		</g>
		<g>
			<rect x="313.622" y="143.861" width="17.124" height="0.711"/>
			<rect x="313.622" y="147.35" width="17.124" height="0.714"/>
			<path d="M331.302,152.379c0,0.256-0.205,0.464-0.465,0.464l0,0c-0.253,0-0.463-0.208-0.463-0.464v-9.303
				c0-0.257,0.21-0.464,0.463-0.464l0,0c0.26,0,0.465,0.207,0.465,0.464V152.379z"/>
		</g>
		<g>
			<rect x="330.731" y="143.861" width="17.117" height="0.711"/>
			<rect x="330.731" y="147.35" width="17.117" height="0.714"/>
			<path d="M348.41,152.379c0,0.256-0.21,0.464-0.464,0.464l0,0c-0.259,0-0.464-0.208-0.464-0.464v-9.303
				c0-0.257,0.205-0.464,0.464-0.464l0,0c0.254,0,0.464,0.207,0.464,0.464V152.379z"/>
		</g>
		<g>
			<rect x="347.834" y="143.861" width="17.123" height="0.711"/>
			<rect x="347.834" y="147.35" width="17.123" height="0.714"/>
			<path d="M365.52,152.379c0,0.256-0.21,0.464-0.47,0.464l0,0c-0.253,0-0.463-0.208-0.463-0.464v-9.303
				c0-0.257,0.21-0.464,0.463-0.464l0,0c0.26,0,0.47,0.207,0.47,0.464V152.379z"/>
		</g>
		<g>
			<rect x="364.942" y="143.861" width="17.124" height="0.711"/>
			<rect x="364.942" y="147.35" width="17.124" height="0.714"/>
			<path d="M382.623,152.379c0,0.256-0.205,0.464-0.465,0.464l0,0c-0.253,0-0.463-0.208-0.463-0.464v-9.303
				c0-0.257,0.21-0.464,0.463-0.464l0,0c0.26,0,0.465,0.207,0.465,0.464V152.379z"/>
		</g>
		<g>
			<rect x="382.052" y="143.861" width="17.118" height="0.711"/>
			<rect x="382.052" y="147.35" width="17.118" height="0.714"/>
			<path d="M399.731,152.379c0,0.256-0.205,0.464-0.465,0.464l0,0c-0.26,0-0.465-0.208-0.465-0.464v-9.303
				c0-0.257,0.205-0.464,0.465-0.464l0,0c0.26,0,0.465,0.207,0.465,0.464V152.379z"/>
		</g>
		<g>
			<rect x="399.155" y="143.861" width="17.123" height="0.711"/>
			<rect x="399.155" y="147.35" width="17.123" height="0.714"/>
			<path d="M416.84,152.379c0,0.256-0.21,0.464-0.465,0.464l0,0c-0.259,0-0.464-0.208-0.464-0.464v-9.303
				c0-0.257,0.205-0.464,0.464-0.464l0,0c0.255,0,0.465,0.207,0.465,0.464V152.379z"/>
		</g>
		<g>
			<rect x="416.263" y="143.861" width="17.124" height="0.711"/>
			<rect x="416.263" y="147.35" width="17.124" height="0.714"/>
			<path d="M433.944,152.379c0,0.256-0.205,0.464-0.466,0.464l0,0c-0.254,0-0.464-0.208-0.464-0.464v-9.303
				c0-0.257,0.21-0.464,0.464-0.464l0,0c0.261,0,0.466,0.207,0.466,0.464V152.379z"/>
		</g>
	</g>
	<path d="M315.247,115.001c0.438,0,0.881,0.027,1.312-0.056c0.168-0.906-0.319-1.254-0.825-1.762
		c-1.138-1.146,0.024-0.59,0.188-1.699c0.225-1.508-2.413-1.963-1.932-3.539c0.371-1.214,1.945-0.881,2.766-1.412
		c-0.321-0.854-1.334-1.732-2.197-1.703c-0.238-0.765,0.607-1.649,1.071-2.149c-1.326-0.75-2.729-0.278-4.126-0.423
		c0.022-0.169-0.094-0.431-0.071-0.598c-0.207,0.043-0.528-0.087-0.734-0.047c-0.065-1.397-2.869-1.772-3.789-1.274
		c-0.747-0.629-1.533-1.065-2.402-1.414c0.332-0.382,0.807-0.721,1.264-0.967c-0.344-0.745-1.666-1-2.375-1.033
		c0.203-0.266,0.201-0.525-0.021-0.778c0.498-0.369,1.912-1.307,1.712-2.081c-0.192-0.753-1.716-1.107-2.282-1.288
		c-0.847-0.276-0.913-0.44-1.535-1.053c-0.976-0.957-2.138-1.16-3.173-0.313c-0.197,0.161-0.309,0.635-0.617,0.603
		c-0.264-0.027-0.574-0.741-0.855-0.901c-1.022-0.574-1.91,0.42-2.73,0.526c-0.917,0.118-1.01-0.222-1.585,0.735
		c-0.515,0.856-0.846,1.279-1.839,0.559c-0.251-0.183-0.5-0.636-0.742-0.721c-0.437-0.154-1.119,0.079-1.587,0.021
		c-0.082-0.563,0.072-1.138-0.245-1.557c-0.354-0.47-1.403-0.762-1.811-0.423c-0.299-0.353-1.098-1.386-1.647-1.234
		c-0.52,0.144-0.653,1.241-0.999,1.565c-1.055,0.991-3.553-0.479-4.708-0.933c-0.685,1.254-1.194,0.525-2.383,0.738
		c-0.133,0.326-0.251,0.644-0.213,1.01c-0.539-0.155-1.073-0.349-1.598-0.34c-0.548,0.01-0.861,0.32-1.362,0.518
		c0.207,0.439,0.693,0.807,0.986,1.2c-0.324,0.286-1.173,0.595-1.371,0.915c-0.421,0.684,0.233,0.426,0.61,0.877
		c0.609,0.73-0.161,1.421-0.349,2.234c-0.798,0.115-1.602-1.179-2.399-1.438c-0.159,0.252-0.224,0.543-0.202,0.854
		c-0.802,0.095-1.608,0.113-2.388-0.178c-0.458,0.566-0.255,0.995-0.738,1.433c-0.238,0.214-1.446,0.634-1.76,0.679
		c-0.889,0.123-0.484,0.237-1.254-0.589c-1.281-1.374-2.505-2.399-2.783,0.196c-0.598,0.115-1.384-0.065-1.933,0.301
		c-0.332,0.22-0.306,0.515-0.586,0.736c-0.648,0.516-2.664,0.811-2.538,1.95c0.62,0.074,1.658-0.281,2.113,0.203
		c-0.456,0.472-1.196,0.727-1.502,1.363c-0.642,1.322,0.82,0.612,1.065,1.509c0.211,0.777-0.893,2.367-1.312,2.925
		c-0.356,0.479-0.048,0.441-0.64,0.69c-0.541,0.227-1.369-0.053-1.955,0.066c0.126,0.744-0.263,1.724-0.979,1.746
		c-1.545,0.048-2.09-3.103-3.405-1.186c-0.532,0.777-0.712,1.42-1.467,1.995c-0.333,0.258-1.004,0.464-1.265,0.724
		c-0.263,0.265-0.556,0.972-0.525,1.35c0.092,1.025,0.729,0.655,1.379,1.062c-0.267,1.078-1.901,1.268-2.183,2.396
		c-0.225,0.905,1.051,1.411,1.853,1.346c0.253,2.438,2.788,1.335,4.09,0.665c0.385,0.685,0.723,1.394,1.373,1.61
		c0.735,0.247,1.199-0.194,1.593,0.784c-0.6,0.552-1.725,1.168-2.039,1.921c0.777,0.606-0.057,1.081-0.046,1.71
		c0.012,0.591,0.619,1.53,1.208,1.271c0.025-0.127,0.048-0.262,0.064-0.389c0.33,0.293,1.943,2.931,2.003,1.263
		c0.744,0.346,2.133,2.408,3.022,2.16c0.846-0.235,0.546-2.396,0.785-3.08c1.314,0.534,2.792,1.427,3.643,2.688
		c0.388-0.422,0.84,0.099,1.35-0.04c1.058-0.279,0.734-1.039,1.98-0.079c0.459,0.355,0.807,0.615,1.044,1.148
		c0.143,0.322-0.125,0.557,0.188,0.888c0.415,0.449,1.34,0.187,1.634-0.268c0.854,0.399,1.245,1.955,2.184,2.136
		c0.075-0.32,0.009-0.602-0.172-0.825c0.628-0.147,1.314-0.073,1.98,0.052c0.32,0.229,0.564,0.429,0.681,0.575
		c0.605,0.765,3.33,1.152,5.053,0.937c1.262,1.336,2.223,2.606,2.851,3.512c0.052,0.96,0.102,2.105,0.143,3.379
		c-0.012,0.009-0.025,0.011-0.037,0.022c-0.087,0.078-0.17,0.354-0.201,0.53c-0.406-0.167-0.932-0.26-1.188,0.138
		c-0.178,0.277-0.127,0.616-0.256,0.892c-0.185,0.396-0.553,0.599-0.901,0.748c-0.181,0.081-0.227,0.126-0.433,0.151
		c-0.311,0.038-0.662-0.04-0.925,0.197c-0.215,0.195-0.542,1.245-0.167,1.347c-0.47-0.007-0.823-0.085-1.119,0.37
		c-0.1,0.15-0.117,0.354-0.185,0.47c-0.096,0.169-0.2,0.132-0.359,0.24c-0.476,0.321-0.411,1.056,0.107,1.357
		c0.455,0.271,0.625-0.057,0.792-0.47c0.608,0.444,1.37,0.335,1.954-0.053c0.08,0.192,0.171,0.144,0.366,0.118
		c0.154-0.021,0.8-0.13,0.914-0.267c0.244-0.295-0.272-0.895-0.377-1.151c0.233,0.071,0.572,0.254,0.79,0.039
		c0.032-0.027,0.045-0.065,0.063-0.101c0.272,0.485,0.709,1.35,1.28,2.752c-0.005,4.216-0.157,8.162-0.54,11.775l4.395-0.111
		c0,0,0.052-6.418-0.168-13.437c0.073,0.065,0.147,0.127,0.238,0.171c0.483,0.24,1.185,0.089,1.539-0.344
		c0.394-0.482,0.054-0.412-0.129-0.794c-0.15-0.312-0.025-0.721-0.068-1.056c-0.048-0.384-0.205-0.588-0.53-0.765
		c-0.095-0.057-0.635-0.1-0.669-0.139c-0.226-0.258,0.359-1.048,0.262-1.462c-0.075-0.32-0.446-0.644-0.83-0.834
		c-0.045-0.898-0.094-1.771-0.149-2.6c0.471-0.803,1.197-1.747,1.996-2.68c4.85-0.279,7.224-1.795,8.238-2.719
		c0.456,0.68,0.851,2.074,1.705,2.126c0.59-1.05,0.53-1.765,1.792-1.671c1.297,0.095,2.276,0.981,3.395,1.604
		c0.081-0.438-0.586-1.211-0.819-1.618c0.951-0.251,2.713,0.077,3.438-0.562c-0.152-0.518-0.646-0.614-0.854-1.038
		c0.463-0.216,0.91-1.06,0.753-1.63c-0.196-0.721-1.163-0.996-1.74-1.229c-0.225-0.091-0.709-0.048-0.884-0.295
		c-0.161-0.216,0.095-0.645-0.029-0.849c-0.292-0.479-0.938-0.628-1.414-0.894c0.427-0.896,1.599-0.175,2.151,0.234
		c0.611,0.451,0.703,0.684,1.426,0.461c0.363-0.113,0.63-0.477,1.002-0.543c0.474-0.089,0.338,0.054,0.789,0.156
		c0.741,0.171,1.374,0.329,2.167,0.194c0.054-0.43-0.035-0.863,0.052-1.271c1.068-0.253,2.235,0.047,3.305-0.148
		c0.081-0.502-0.429-0.602-0.57-1.003c1.333-1.146-0.039-1.864-0.828-2.504c0.611-0.695,2.99-1.85,3.852-1.188
		c0.406-0.896,1.395-0.22,2.041-0.177c0.791,0.044,1.526-0.383,2.344-0.597C319.548,116.665,316.19,115.987,315.247,115.001z
		 M298.569,110.522c0.155,0.044,0.301,0.19,0.447,0.325c-0.312,0.24-1.135,0.687-1.403,0.915c0.187-0.386,0.327-0.787,0.383-1.207
		C298.193,110.504,298.4,110.476,298.569,110.522z M291.553,113.94c0-0.091,0.085-0.087,0.09-0.177
		c0.02-0.278,0.065-0.57,0.305-0.742c0.098-0.073,0.457-0.074,0.556-0.095c0.342-0.062,0.682-0.142,1.024-0.215
		c0.648-0.142,0.329-0.072,0.489-0.504c0.111-0.293,0.575-0.293,0.815-0.374c0.469-0.16,0.96-0.539,1.46-0.508
		c0.183-0.172,0.474-0.3,0.706-0.367c0.095-0.025,0.176-0.064,0.259-0.103c-0.19,0.631-0.583,1.243-0.994,1.876
		c-0.385,0.598-0.781,1.213-1,1.86c-0.029,0.082-0.05,0.163-0.069,0.245c-0.323-0.317-0.344-1.06-0.897-0.763
		c-0.288,0.157-0.447,0.472-0.734,0.65c-0.327,0.197-0.74,0.289-1.106,0.312c-0.151,0.011-0.715,0.096-0.868-0.01
		c-0.384-0.257-0.006-0.585,0.065-0.91C291.673,114.042,291.555,114.022,291.553,113.94z M286.77,112.489
		c0.307-0.308,0.672-0.599,1.029-0.881c0.622-0.495,1.268-1.006,1.661-1.649c0.067-0.108,0.123-0.22,0.172-0.333
		c0.201,0.138,0.585,0.322,0.621,0.589c-0.244,0.167-1.772,0.229-1.498,0.916c0.227,0.032,0.625-0.112,0.809,0.076
		c0.263,0.272-0.032,0.49-0.14,0.73c0.16,0.041,0.698,0.197,0.771,0.394c0.085,0.227,0.008,0.247-0.165,0.447
		c-0.371,0.43-0.86,0.629-1.414,0.501c-0.471-0.107-0.96-0.438-1.495-0.509c-0.065-0.011-0.13-0.003-0.192,0.005
		C286.877,112.677,286.825,112.582,286.77,112.489z M290.925,108.854c-0.204,0.373-0.962,0.275-1.217,0.586
		c0.051-0.13,0.095-0.261,0.139-0.388c0.111-0.326,0.213-0.635,0.402-0.893c0.068-0.097,0.15-0.181,0.229-0.271
		C290.814,108.067,291.146,108.442,290.925,108.854z M289.06,128.264c0.63,0.438,0.703,0.623,0.749,1.192
		c-0.029,0.022-0.06,0.043-0.088,0.064c-0.422-0.374-1.185-1.086-1.895-1.904C288.315,127.804,288.793,128.078,289.06,128.264z
		 M289.459,100.514c0.364,0.252,0.537,0.542,0.626,0.991c0.058,0.296,0.089,1.312,0.516,1.286c0.049,0.456,0.463,0.778,0.374,1.314
		c-0.447-0.159-0.695-0.778-1.171-0.921c-0.24-0.067-0.452,0.015-0.676-0.077c0.045-1.04-0.04-1.835-0.271-2.617
		C289.007,100.368,289.145,100.295,289.459,100.514z M288.398,100.779c0.032-0.008,0.055-0.021,0.083-0.031
		c0.208,0.637,0.249,1.193,0.197,2.009c-0.111-0.111-0.217-0.226-0.304-0.313c-0.193-0.194-0.29-0.444-0.549-0.549
		c-0.323-0.13-0.458,0.021-0.64-0.349c-0.099-0.198-0.213-0.74-0.346-0.948C286.966,100.903,288.064,100.863,288.398,100.779z
		 M287.137,107.475c0.028-0.298-0.026-0.605,0-0.901c0.297-0.08,0.41,0.15,0.704,0.201c0.006,0.211-0.18,0.392-0.21,0.607
		c-0.018,0.133-0.157,0.275-0.202,0.396c-0.124,0.329-0.113,0.699-0.068,1.062c0.554-0.594,1.357-0.949,2.144-1.041
		c-0.189,0.315-0.305,0.645-0.404,0.942c-0.089,0.266-0.173,0.514-0.297,0.718c-0.318,0.516-0.878,0.96-1.471,1.431
		c-0.341,0.271-0.685,0.548-0.999,0.852c-0.184-0.34-0.317-0.674-0.308-1.011c0.012-0.486,0.064-0.89,0.11-1.242
		c0.116-0.922,0.204-1.64-0.458-2.804C286.312,106.208,286.573,107.736,287.137,107.475z M282.029,108.808
		c0.191-1.056,1.109-0.99,1.944-1.074c0.006-0.05,0.011-0.103,0.017-0.153c0.158-0.033,0.376-0.004,0.586,0.011
		c0.269,0.639,0.218,1.102,0.133,1.785c-0.048,0.377-0.104,0.809-0.116,1.338c-0.021,0.782,0.38,1.447,0.734,2.037
		c0.002,0.004,0.004,0.008,0.007,0.009c-0.16-0.099-0.317-0.193-0.47-0.228c-0.503-0.12-1.439,0.163-1.529-0.699
		c-0.018-0.174,0.098-0.32,0.083-0.469c-0.014-0.124-0.162-0.138-0.187-0.257c-0.108-0.499,0.129-0.619,0.218-1.013
		c-0.11-0.11-0.145-0.281-0.247-0.392c-0.239-0.251-0.105-0.128-0.416-0.095C282.259,109.667,281.912,109.448,282.029,108.808z
		 M274.12,110.69c0.108,0.031,0.545,0.427,0.614,0.524c0.52-0.268,1.271-0.051,1.596,0.465c0.293,0.471,0.265,1.063,0.617,1.446
		c0.218,0.234,0.533,0.373,0.772,0.6c0.135,0.126,0.261,0.394,0.415,0.468c0.099,0.046,0.304-0.038,0.414-0.021
		c0.421,0.053,1.717,0.851,1.438,1.438c-0.375,0.016-1.037-0.373-1.337-0.644c-0.176-0.155-0.418-0.629-0.664-0.604
		c-0.188,0.015-0.301,0.252-0.48,0.285c-0.237-0.322-1.091-0.353-1.439-0.396c-0.245-0.031-0.471-0.014-0.651,0.199
		c-0.005,0.007-0.011,0.018-0.017,0.024c-0.169-0.235-0.367-0.49-0.581-0.763c-0.075-0.097-0.151-0.192-0.228-0.293v-0.004h-0.004
		c-0.504-0.647-1.033-1.368-1.281-1.997l0,0C273.61,111.27,273.609,110.555,274.12,110.69z M270.47,110.769
		c0.373-0.046,0.871-0.104,1.238-0.019c0.216,0.051,0.527,0.28,0.834,0.464c0.092,0.448,0.312,0.913,0.603,1.379
		c-0.258-0.121-0.465-0.199-0.712-0.292l-0.333-0.127c-0.344-0.131-0.708-0.349-1.093-0.58c-0.32-0.191-0.645-0.382-0.974-0.533
		C270.139,110.87,270.153,110.806,270.47,110.769z M269.25,115.126c-0.574-0.067-0.683-0.181-0.447-0.726
		c0.213-0.487,0.546-0.854,0.812-1.28c-0.464-0.046-1.302,0.04-1.361-0.658c-0.048-0.607,0.679-0.684,1.101-0.839
		c0.028-0.013,0.048-0.021,0.074-0.027c0.407,0.14,0.834,0.391,1.253,0.643c0.391,0.235,0.795,0.477,1.188,0.628l0.339,0.129
		c0.269,0.098,0.482,0.179,0.771,0.321c0.144,0.069,0.322,0.139,0.477,0.226c0.276,0.15,0.419,0.267,0.763,0.536
		c0.031,0.042,0.062,0.085,0.093,0.12c0.214,0.273,0.415,0.53,0.577,0.758c0.057,0.077,0.116,0.148,0.176,0.226
		c-0.041,0.073-0.085,0.137-0.138,0.181c-0.13,0.104-0.595,0.038-0.748,0.015c-0.014-0.193,0.001-0.439-0.103-0.614
		c-0.207-0.341-0.163-0.127-0.361-0.1c-0.317,0.045-0.632,0.146-1.008,0.005c-0.402-0.147-0.402-0.15-0.726,0.233
		c-0.18,0.213-0.437,0.699-0.726,0.651c-0.136-0.021-0.439-0.602-0.509-0.71c-0.221-0.353-0.229-0.442-0.574-0.16
		C269.862,114.937,269.669,115.174,269.25,115.126z M274.984,130.912c-0.091-0.046-0.181-0.1-0.275-0.156
		c0.04-0.552-0.047-1.122,0.007-1.671c0.313,0.014,0.706-0.008,0.949-0.204c1.11,0.801,2.103,1.675,2.977,2.545
		C278.094,131.466,276.165,131.556,274.984,130.912z M276.428,128.398c0.461,0.142,0.926,0.568,1.281,0.82
		c0.537,0.383,0.503,0.326,0.919,0.347c0.199,0.011,0.996-0.104,1.256-0.143c0.438-0.066,0.693,0.109,0.606-0.705
		c0.428-0.026,0.783,0.318,1.14,0.681c0.116,1.111,0.251,2.584,0.374,4.343C280.202,130.976,277.873,129.272,276.428,128.398z
		 M281.333,143.003c0.241,0.037,0.647,0.15,1.03,0.207c0.004,0.45,0,0.824,0.004,1.663
		C281.855,143.809,281.533,143.278,281.333,143.003z M285.491,133.682c-0.174-1.865-0.393-3.592-0.662-5.05
		c0.44-0.112,0.899-0.019,1.382-0.118c-0.12-0.775,0.172-1.061,0.617-1.096c0.492,0.776,1.224,1.745,2.231,2.637
		C287.422,131.427,286.192,132.817,285.491,133.682z M288.503,133.135c0.635-0.695,1.274-1.358,1.841-1.913
		c0.3,0.049,0.628-0.093,0.914,0.062c0.578,0.311,0.637,0.967,1.39,0.367c0.45-0.358,0.481-0.904,1.242-1.099
		c0.758-0.19,1.262-0.104,1.723,0.334C293.722,132.672,289.756,133.058,288.503,133.135z M301.938,112.647
		c-0.371,0.091-0.641,0.453-0.972,0.604c-0.289,0.128-0.558,0.11-0.849,0.294c-0.187,0.113-0.278,0.215-0.388,0.376
		c-0.057,0.086-0.037,0.229-0.13,0.312c-0.178,0.157-0.535,0.057-0.758,0.101c-0.17,0.728-0.694,0.943-1.28,0.65
		c-0.336-0.169-0.781-0.635-1.146-0.598c-0.152,0.017-0.311,0.179-0.479,0.329c0.151-0.375,0.377-0.729,0.614-1.107
		c0.766-0.759,1.541-1.365,2.338-2.033l0.546-0.46c0.404,0.092,0.772-0.262,1.172,0.215c0.254,0.305,0.23,0.62,0.589,0.711
		c0.304,0.077,0.666,0.016,0.989,0.086C302.096,112.288,301.984,112.458,301.938,112.647z"/>
	
		<linearGradient id="SVGID_2_" gradientUnits="userSpaceOnUse" x1="464.9219" y1="86.0476" x2="464.9219" y2="89.1736" gradientTransform="matrix(1 0 0 -1 -132.1846 205.9351)">
		<stop  offset="0" style="stop-color:#9A8A53"/>
		<stop  offset="0.0586" style="stop-color:#93834C"/>
		<stop  offset="0.3578" style="stop-color:#73622F"/>
		<stop  offset="0.6252" style="stop-color:#5D4D1D"/>
		<stop  offset="0.8484" style="stop-color:#514112"/>
		<stop  offset="1" style="stop-color:#4D3D0E"/>
	</linearGradient>
	<path fill="url(#SVGID_2_)" d="M330.583,115.967c0.111,1.133,1.03,2.402,1.768,3.429l0.544,0.771
		c0.496,0.749,1.027,1.321,1.675,1.797l0.322-0.44c-0.591-0.438-1.084-0.964-1.542-1.657l-0.556-0.789
		c-0.7-0.971-1.572-2.178-1.668-3.159L330.583,115.967z"/>
	<path d="M440.293,116.495c-0.17-0.21-1.835-2.079-0.577-1.866c0.269-1.223-1.268-1.854-1.982-1.536
		c-0.421,0.187-0.832,0.904-1.259,0.939c-0.214,0.02-1.564-0.769-1.655-0.991c-0.066-0.159,0.005-0.636-0.048-0.854
		c-0.104-0.431-0.345-0.849-0.606-1.159c-0.526-0.624-1.136-0.646-1.758-1.012c-0.4-0.235-1.248-1.124-1.191-1.796
		c0.573-0.281,1.562,0.138,2.132,0.256c0.425,0.087,1.327,0.479,1.766,0.281c0.412-0.185,1.396-1.383,1.396-1.967
		c-0.002-1.273-1.92-1.02-1.665-2.524c0.645-0.154,1.288-0.431,1.946-0.594c-0.468-1.151-2.479-1.727-3.449-1.718
		c-0.654,0.003-0.796,0.045-1.19-0.562c-0.293-0.453-0.57-0.863-0.903-1.269c-0.221-0.269-0.534-0.432-0.51-0.876
		c0.403-0.318,1.029-0.322,1.373-0.703c-0.254-0.927-2.07-0.903-1.993-1.843c1.066-0.519,2.319,0.092,3.424-0.152
		c-0.177-0.59-1.012-1.258-1.437-1.575c-0.495-0.366-1.078-0.438-1.584-0.749c0.612-0.271,0.451-1.068,0.007-1.52
		c-1.214-1.227-2.552,0.219-3.745,0.516c-0.1-0.212-0.298-0.465-0.335-0.704c-0.05-0.324,0.106-0.411,0.133-0.681
		c0.076-0.764-0.621-0.845-1.217-1.034c-0.366-0.115-1.858-0.162-1.943-0.728c-0.124-0.875,2.825-1.674,3.306-2.254
		c-0.234-0.517-0.683-0.572-1.142-0.565c-0.53,0.013-0.95,0.166-1.446,0.406c-0.356,0.179-0.715,0.591-1.065,0.721
		c-0.765,0.283-0.322-0.521-0.324-1.05c-0.003-0.592-0.248-0.879-0.688-1.111c-0.347-0.185-1.322-0.312-1.412-0.864
		c-0.062-0.388,0.421-0.68,0.38-1.136c-0.062-0.709-1.27-1.03-1.751-1.129c-0.525-0.104-1.085,0.052-1.601-0.062
		c0.646-0.912,1.646-1.658,2.525-2.2c-0.325-0.399-1.117-0.648-1.59-0.601c-1.173,0.123-2.135,1.025-3.179,1.662l0.355-0.42
		c0.313-0.246,0.324-1.217,0.396-1.666c0.123-0.798-0.631-1.973-1.275-2.359c0.357-0.435-0.186-1.226-0.575-1.354
		c-1.126-0.378-2.43,1.216-3.513,0.904c-0.007-0.081-0.017-0.16-0.028-0.239c-0.24-0.088-0.361,0.056-0.583,0.079
		c-0.339,0.039-0.569-0.036-0.895-0.089c-0.425-0.065-0.653-0.095-0.843-0.6c-0.107-0.292-0.02-0.41-0.218-0.72
		c-0.166-0.261-0.299-0.354-0.548-0.442c-0.705-0.247-1.757,0.257-2.389,0.575c-0.424,0.214-1.188,1.271-1.496,0.525
		c-0.135-0.327,0.111-0.686-0.143-0.969c-0.221-0.244-1.129,0.057-1.393,0.095c-0.533,0.081-0.836,0.188-1.303,0.521
		c-0.649,0.461-1.266,1.143-1.572,1.999c-0.346-0.318-0.587-0.522-1.049-0.592c-0.634-0.093-1.181,0.152-1.783,0.283
		c-0.158,0.032-0.236,0.185-0.404,0.141c-0.323-0.073-0.411-0.415-0.725-0.34c-0.44,0.101-0.566,0.696-0.717,1.157
		c-0.466-0.207-0.714-0.81-1.25-1.018c-0.479-0.186-0.85-0.245-1.254,0.086c-0.389,0.318-0.627,0.91-0.88,1.387
		c-0.696-0.124-1.399-0.241-1.414,0.888c-0.709,0.122-1.722-0.419-1.776,0.833c-0.168,0.038-0.398,0.078-0.542,0.188
		c-0.196,0.15-0.161,0.292-0.261,0.39c-0.535,0.53-1.302,0.124-2.016,0.289c-1.118,0.259-1.52,1.507-1.76,2.618
		c0.414,0.089,0.874-0.097,1.254,0.179c-0.366,0.104-2.565,1.474-1.602,1.984c0.405,0.215,1.084-0.363,1.49-0.432
		c0.277-0.05,0.649-0.011,0.918,0.04c-0.002,0.362,0.17,0.518,0.417,0.577c-0.194,0.26-0.393,0.519-0.596,0.771
		c0.297,0.185,1.083-0.163,1.516-0.06c0.332,0.081,0.77,0.232,1.164,0.47c0.042,0.107,0.128,0.198,0.05,0.382
		c-0.097,0.222-0.527,0.302-0.698,0.48c-0.147,0.15-0.218,0.299-0.324,0.484c-0.263,0.479-0.361,0.696-0.879,0.964
		c-0.291,0.148-0.918,0.438-1.254,0.337c-0.304-0.089-0.266-0.184-0.513-0.441c-0.32-0.347-0.394-0.495-0.808-0.332
		c-0.384,0.149-0.635,0.493-0.579,0.974c-0.775,0.162-1.518-0.645-2.303-0.579c-0.8,0.065-0.938,0.813-1.103,1.668
		c-0.089,0.468,0.021,0.314-0.277,0.647c-0.452,0.507-0.998,0.771-1.413,1.381c-0.384,0.572-0.273,0.967-0.424,1.65
		c-0.122,0.55-0.343,1.008,0.214,1.112c0.197,0.037,0.498-0.226,0.683-0.225c0.42,0.021,0.938,0.451,1.264,0.744
		c0.371,0.332,0.31,0.368,0.702,0.298c0.488-0.09,1.076-0.772,1.561-0.996c0.662-0.308,1.042,0.147,1.699,0.147
		c0.275,0,0.542-0.142,0.803-0.323c0.611,0.249,1.169,0.601,1.527,1.151c-0.494-0.089-1.048-0.432-1.575-0.393
		c-0.684,0.054-1.706,0.819-2.064,1.519c-0.407-0.212-0.789-0.385-1.245-0.268c-0.553,0.144-1.53,0.929-1.568,1.648
		c-0.215-0.12-0.288-0.556-0.45-0.785c-0.261-0.377-0.506-0.521-0.907-0.627c-0.578-0.156-1.172-0.064-1.692,0.232
		c-1.04,0.598-1.567,1.384-0.941,2.659c-0.396,0.373-1.035,0.968-1.179,1.575c-0.352,1.474,0.796,1.767,1.146,2.843
		c-1.086,0.021-3.984,1.151-3.284,2.959c0.068,0.176,0.258,0.385,0.297,0.552c0.076,0.312-0.027,0.886-0.001,1.233
		c0.092,1.257,0.349,2.392,0.867,3.484c-0.402,0.594-0.805,1.211-1.189,1.811c-0.262,0.409-0.575,0.767-0.33,1.235
		c0.111,0.21,0.956,0.414,1.153,0.456c0.511,0.106,1.071,0.033,1.59,0.041c0.408,0.002,1.193-0.188,1.527,0.152
		c-0.336,0.615-0.912,1.797-0.342,2.457c0.343,0.396,0.882,0.106,1.312,0.112c0.651,0.011,1.886-0.245,1.965,0.727
		c0.049,0.61-0.373,1.222-0.238,1.821c0.954,0.49,2.118,0.461,3.115,0.038c-0.606,0.953-1.078,2.408-2.11,2.875
		c-0.154,1.198,4.564-1.151,4.985-1.271c0.052,0.538,0.68,0.712,1.01,0.906c0.389,0.233,0.75,0.578,1.095,0.822
		c0.445-0.65,1.45-1.038,2.032-1.53c0.118-0.098,0.189-0.223,0.299-0.309c3.289,2.838,9.768,3.418,11.279,3.515
		c0.631,1.007,1.334,1.979,2.085,2.795c-0.02,0.082-0.037,0.162-0.058,0.241c-0.783-0.093-1.104-0.188-1.401,0.816
		c-0.253,0.856-0.204,0.886-0.928,0.579c-0.325-0.137-0.68-0.268-0.996-0.389c-0.18,0.744,0.338,1.571,0.173,2.322
		c-0.498-0.022-0.691,0.19-0.679,0.732c0.007,0.235,0.154,0.432,0.096,0.654c-0.011,0.051-0.36,0.416-0.415,0.51
		c-0.891,1.542,1.213,1.51,1.973,1.892c-0.053,0.271-0.28,0.275-0.38,0.504c-0.133,0.308-0.07,0.743,0.087,1.025
		c0.337,0.612,1.051,0.638,1.608,0.656c0.318,0.011,1.207,0.204,1.474,0.025c0.291-0.193,0.229-0.645,0.215-0.991
		c0.464,0.316,1.635-0.016,2.076-0.306c0.015-0.007,0.024-0.016,0.037-0.025c0.32,0.443,0.717,0.975,1.205,1.599l0.027-0.065
		c0.272,4.896,0.364,12.346-1.095,17.247l4.432,0.051c0,0,0.306-4.102,0.327-9.568c0.68-1.889,2.043-2.479,2.059-2.485l0.014-0.003
		c0-0.003,0.015-0.013,0.015-0.013l-0.114-0.665c-0.062,0.021-1.177,0.503-1.972,2.016c-0.011-2.69-0.378-5.836-0.177-8.762
		c0.062-0.881,0.075-1.615,0.056-2.238c0.039-0.019,0.076-0.03,0.115-0.057c0.327-0.214,0.229-0.657,0.438-0.921
		c0.137-0.167,0.837-0.508,1.03-0.529c-0.025,0.45,0.033,1.247,0.287,1.582c0.385,0.513,0.959,0.268,1.471,0.396
		c0.051,1.088,0.64,1.269,1.24,0.453c0.514,0.323,1.088,0.406,1.674,0.315c0.031-0.375-0.429-0.65-0.385-0.99
		c0.022-0.176,0.279-0.219,0.309-0.408c0.082-0.605-0.798-1.256-0.888-1.69c-0.176-0.836,0.072-1.501-0.676-2.087
		c-0.733-0.575-1.834-0.184-2.657-0.305c0.057-0.327-0.058-0.512-0.258-0.608c0.643-1.48,1.295-2.765,1.923-3.854
		c2.755-0.145,4.974-0.778,6.508-1.371c0.01,0.013,0.019,0.021,0.028,0.03c0.403,0.363,0.871,0.121,1.371,0.239
		c-0.06,0.351-0.406,1.038-0.09,1.4c0.336,0.387,1.11-0.18,1.465-0.375c0.352,0.404,0.304,1.114,0.757,1.513
		c0.476,0.411,1.104,0.201,1.632,0.175c0.674-0.034,1.307,0.011,1.943-0.358c0.894-0.517,1.26-1.81,2.046-2.514
		c0.344,0.728,1.927-0.213,2.32-0.552c0.337,0.674,1.153,1.292,1.765,0.983c0.831-0.419,1.159-1.812,1.879-2.246
		c0.245,0.379,0.526,0.776,0.604,1.247c0.679,0.253,0.574-0.349,0.674-0.789c0.115-0.503-0.317-0.131,0.21-0.604
		c0.58-0.521,1.426-0.814,2.05-1.278c0.719-0.535,1.955-1.038,1.342-2.217c-0.28-0.536-0.862-0.815-1.05-1.405
		c0.373-0.021,1.589-0.298,1.762-0.706C441.458,117.648,440.543,116.806,440.293,116.495z M420.178,100.821
		c0.003,0.062,0.014,0.112,0.022,0.163c-0.75,0.44-1.543,0.839-2.318,1.183c0.492-0.61,0.945-1.332,1.314-1.979
		c0.46-0.11,0.925-0.138,1.358-0.01C420.337,100.339,420.167,100.449,420.178,100.821z M415.876,101.982
		c0.432,0.014,0.392-0.069,0.687-0.314c0.364-0.306,0.685-0.387,1.061-0.607l-0.096-0.119c0.32-0.215,0.684-0.411,1.061-0.565
		c-0.495,0.818-1.096,1.673-1.706,2.218c-1.349,0.543-2.576,0.926-3.374,1.156c0.469-1.146,0.855-2.263,1.156-3.208
		c0.187,0.439,0.352,0.904,0.596,1.198C415.458,101.975,415.574,101.975,415.876,101.982z M410.958,103.668
		c-0.054-0.509-0.922-0.63-0.947-1.165c-0.032-0.809,1.238-0.591,1.646-0.711c0.055-0.465-0.17-1.483,0.121-1.86
		c0.146-0.192,0.196-0.057,0.393-0.134c0.424-0.165,0.953-0.491,1.406-0.45c0.097,0.008,0.184,0.032,0.263,0.072
		c-0.687,2.854-2.202,5.387-3.466,7.12c-0.363-0.032-0.719-0.129-0.925-0.412C408.883,105.348,410.345,103.878,410.958,103.668z
		 M399.828,98.993c0.113,0.217,0.029,0.356,0.039,0.508c0.003,0.073-0.09,0.018-0.053,0.164c0.033,0.138,0.444,0.163,0.522,0.191
		c0.488,0.161,0.967,0.312,0.988,0.992c0.02,0.688-0.671,0.749-1.107,0.789c-0.629,0.053-1.074-0.093-1.582-0.46
		c-0.093-0.752-0.161-1.564-0.196-2.427C398.869,98.759,399.586,98.533,399.828,98.993z M392.235,102.265
		c-0.182-0.308-0.385-0.511-0.607-0.771c-0.239-0.279-0.377-0.432,0-0.597c0.525-0.231,0.979,0.063,1.462,0.224
		c0.038-0.213,0.07-0.46,0.115-0.709c1.255,1.185,2.563,2.189,3.493,2.854c-0.002,0.02,0,0.048-0.003,0.065
		c-0.177,0.709-1.229,0.688-1.698,0.675C394.022,103.979,392.815,103.237,392.235,102.265z M393.832,99.284
		c0.121,0.365,0.262,0.74,0.419,1.088c-0.265-0.231-0.53-0.48-0.792-0.731c0.027-0.046,0.054-0.091,0.084-0.131
		C393.627,99.404,393.726,99.334,393.832,99.284z M395.066,99.166c0.314-0.053,0.594-0.198,0.938-0.145
		c0.299,0.047,0.498,0.39,0.73,0.607l0.062-0.074c0.141-0.18,0.294-0.362,0.45-0.537c0.02,0.751,0.069,1.843,0.206,3.066
		c-0.091,0.036-0.185,0.087-0.296,0.141c-0.1,0.039-0.312,0.071-0.412,0.158c-0.516-0.379-1.12-0.844-1.75-1.366
		c-0.328-0.507-0.604-1.171-0.821-1.826C394.472,99.156,394.792,99.209,395.066,99.166z M390.074,123.481
		c0.438-0.625,0.733-1.307,1.478-1.132c0.608,0.14,1.362,0.636,1.854,1.07c0.053,0.05,0.106,0.106,0.161,0.168
		c0.5,0.687,1.19,1.553,1.93,2.229C393.56,125.351,391.517,124.617,390.074,123.481z M396.537,126.051
		c-0.781-0.492-1.596-1.401-2.232-2.218c0.288-0.534,1.126-1.104,1.42-1.313c0.78-0.559,1.332-0.717,2.115-0.215
		c0.023,0.012,0.051,0.031,0.076,0.048c0.449,1.04,1.173,2.608,2.095,4.211C399.194,126.485,397.934,126.335,396.537,126.051z
		 M404.621,129.102c-0.238-0.045-0.396,0.169-0.574,0.225c-1.338-1.263-3.193-3.312-4.418-5.874c0.342,0.099,0.66,0.052,0.896-0.285
		c0.358,0.28,0.135,1.396,0.586,1.643c0.448,0.25,1.291-0.59,1.758-0.663c-0.021,0.237,0.035,0.521,0.138,0.733
		c0.213,0.438,0.251,0.235,0.568,0.396c0.293,0.147,0.519,0.368,0.877,0.443c0.482,0.099,0.888,0.026,1.265-0.144
		c0.334,1.655,0.521,3.407,0.617,4.677c-0.175-0.038-0.381-0.015-0.604-0.112C405.276,129.935,405.123,129.192,404.621,129.102z
		 M406.005,137.39c0.011-0.092,0.031-0.186,0.071-0.289c0.095-0.236,0.296-0.306,0.508-0.36c0.04,0.455,0.084,0.993,0.128,1.614
		C406.434,137.987,406.207,137.675,406.005,137.39z M409.928,130.125c-0.018-0.017-0.034-0.035-0.052-0.051
		c-0.223-0.242-0.373-0.686-0.66-0.794c-0.039-0.014-0.082-0.023-0.127-0.028c-0.309-2.379-0.736-4.266-1.098-5.579
		c0.401-0.421,0.803-0.85,1.246-1.192c0.17-0.132,0.336-0.195,0.48-0.368c0.427,0.219,0.579,0.849,0.798,1.262
		c0.348,0.659,0.818,0.811,1.494,0.73c0.267-0.03,0.465-0.041,0.695-0.035c0.265,0.004,0.174,0.218,0.466,0.064
		c0.308-0.166,0.447-0.853,0.646-1.145c0.245-0.362,0.588-0.488,0.694-0.984c0.109,0.023,0.176,0.075,0.228,0.138
		C412.702,124.578,410.994,127.837,409.928,130.125z M414.61,126.023c1.284-2.057,2.386-3.275,2.917-3.813
		c-0.009,0.729-0.21,1.518,0.32,1.925c0.593,0.454,1.606,0.167,2.229-0.031c-0.012,0.223-0.007,0.46,0.028,0.688
		C418.753,125.3,416.881,125.835,414.61,126.023z M423.835,103.591c-0.38,0.168-1.211-0.07-1.462,0.3
		c0.11,0.42,0.922,1.464,0.677,1.819c-0.345,0.505-1.691,0.049-2.062-0.205c-0.167,0.55-0.927,0.817-1.363,0.562
		c-0.553-0.325-0.401-0.981-0.454-1.437c-0.076-0.65-0.796-1.386-1.348-1.182c-0.422,0.158-0.667,1.107-1.055,1.316
		c-0.391,0.212-0.63-0.303-1.047-0.401c-0.493-0.12-0.504,0.202-0.854,0.44c-0.355,0.244-0.92,0.123-1.265,0.464
		c-0.319,0.318-0.038,0.449-0.252,0.825c-0.151,0.271-0.653,0.381-1.143,0.422c0.285-0.531,0.557-1.076,0.809-1.633
		c1.099-0.282,4.851-1.33,7.906-3.246c0.08,0.039,0.157,0.079,0.223,0.134c0.136,0.118,0.153,0.269,0.279,0.388
		c0.5,0.471,1.24,0.458,1.832,0.595C423.667,102.85,423.879,102.956,423.835,103.591z"/>
	<path d="M448.979,151.739c-0.166-0.197-0.359-0.203-0.557-0.319c-0.126-0.073-0.394-0.354-0.376-0.566
		c0.182-0.089,0.493,0.044,0.674,0.08c0.134,0.027,0.419,0.151,0.558,0.089c0.131-0.059,0.441-0.438,0.441-0.62
		c0-0.402-0.605-0.321-0.525-0.797c0.201-0.05,0.405-0.138,0.613-0.188c-0.146-0.362-0.781-0.544-1.088-0.542
		c-0.208,0.001-0.252,0.016-0.377-0.178c-0.093-0.143-0.181-0.272-0.286-0.4c-0.067-0.085-0.168-0.136-0.16-0.274
		c0.129-0.103,0.326-0.104,0.435-0.223c-0.08-0.293-0.653-0.285-0.629-0.582c0.337-0.163,0.73,0.028,1.08-0.049
		c-0.057-0.186-0.32-0.397-0.453-0.497c-0.156-0.115-0.34-0.139-0.499-0.235c0.191-0.086,0.143-0.339,0.002-0.48
		c-0.384-0.387-0.807,0.069-1.183,0.162c-0.032-0.065-0.096-0.146-0.106-0.223c-0.016-0.103,0.033-0.13,0.041-0.214
		c0.024-0.24-0.195-0.268-0.384-0.327c-0.115-0.036-0.587-0.051-0.613-0.229c-0.039-0.274,0.894-0.526,1.044-0.71
		c-0.073-0.164-0.216-0.181-0.361-0.18c-0.166,0.004-0.299,0.052-0.456,0.129c-0.112,0.056-0.226,0.187-0.336,0.228
		c-0.24,0.09-0.103-0.165-0.104-0.332c0-0.188-0.077-0.275-0.217-0.352c-0.109-0.058-0.418-0.098-0.444-0.273
		c-0.022-0.119,0.131-0.213,0.118-0.357c-0.021-0.223-0.401-0.324-0.553-0.355c-0.166-0.032-0.343,0.018-0.506-0.02
		c0.204-0.287,0.521-0.524,0.798-0.694c-0.103-0.127-0.354-0.205-0.501-0.188c-0.369,0.039-0.675,0.322-1.005,0.522l0.112-0.133
		c0.101-0.077,0.104-0.384,0.125-0.524c0.04-0.253-0.198-0.622-0.402-0.744c0.112-0.139-0.059-0.389-0.183-0.429
		c-0.354-0.119-0.767,0.384-1.106,0.285c-0.004-0.024-0.006-0.051-0.011-0.075c-0.075-0.027-0.113,0.019-0.184,0.024
		c-0.107,0.013-0.18-0.012-0.283-0.027c-0.134-0.021-0.206-0.029-0.266-0.188c-0.033-0.092-0.007-0.131-0.068-0.229
		c-0.052-0.082-0.094-0.111-0.173-0.14c-0.223-0.077-0.555,0.081-0.756,0.181c-0.133,0.067-0.374,0.402-0.472,0.167
		c-0.043-0.104,0.035-0.216-0.046-0.307c-0.067-0.076-0.354,0.02-0.438,0.031c-0.169,0.023-0.263,0.06-0.41,0.164
		c-0.205,0.145-0.399,0.359-0.497,0.63c-0.109-0.102-0.186-0.165-0.331-0.187c-0.2-0.028-0.372,0.048-0.562,0.09
		c-0.052,0.01-0.075,0.059-0.128,0.043c-0.103-0.021-0.132-0.13-0.229-0.106c-0.139,0.032-0.179,0.221-0.226,0.366
		c-0.146-0.065-0.227-0.256-0.396-0.321c-0.148-0.059-0.268-0.077-0.396,0.026c-0.122,0.102-0.198,0.288-0.277,0.438
		c-0.22-0.039-0.442-0.076-0.447,0.28c-0.223,0.038-0.543-0.132-0.56,0.263c-0.054,0.012-0.126,0.025-0.172,0.061
		c-0.062,0.048-0.052,0.093-0.082,0.123c-0.169,0.168-0.41,0.038-0.638,0.092c-0.354,0.082-0.479,0.476-0.556,0.825
		c0.13,0.028,0.276-0.028,0.396,0.057c-0.116,0.033-0.81,0.467-0.506,0.627c0.129,0.068,0.343-0.113,0.471-0.136
		c0.088-0.018,0.205-0.004,0.291,0.013c-0.001,0.114,0.054,0.164,0.131,0.183c-0.062,0.082-0.123,0.162-0.188,0.243
		c0.095,0.06,0.344-0.052,0.48-0.018c0.104,0.024,0.241,0.072,0.367,0.146c0.012,0.033,0.039,0.062,0.015,0.12
		c-0.029,0.07-0.167,0.097-0.221,0.152c-0.045,0.048-0.068,0.094-0.102,0.151c-0.085,0.151-0.114,0.222-0.277,0.306
		c-0.093,0.048-0.289,0.14-0.396,0.105c-0.097-0.026-0.085-0.058-0.162-0.14c-0.102-0.11-0.125-0.156-0.256-0.105
		c-0.121,0.05-0.2,0.157-0.183,0.31c-0.245,0.052-0.479-0.204-0.728-0.183c-0.252,0.021-0.296,0.257-0.349,0.525
		c-0.028,0.147,0.007,0.1-0.087,0.204c-0.144,0.16-0.315,0.242-0.446,0.436c-0.121,0.183-0.086,0.308-0.133,0.521
		c-0.039,0.174-0.109,0.318,0.066,0.352c0.062,0.012,0.156-0.07,0.216-0.07c0.133,0.006,0.296,0.143,0.397,0.233
		c0.118,0.106,0.1,0.117,0.223,0.096c0.154-0.027,0.341-0.245,0.492-0.314c0.209-0.097,0.328,0.047,0.536,0.047
		c0.087,0,0.171-0.045,0.253-0.103c0.193,0.079,0.369,0.189,0.483,0.363c-0.157-0.027-0.331-0.136-0.498-0.123
		c-0.215,0.017-0.538,0.26-0.651,0.479c-0.128-0.068-0.249-0.121-0.394-0.085c-0.174,0.046-0.483,0.294-0.495,0.521
		c-0.067-0.036-0.091-0.175-0.143-0.246c-0.082-0.119-0.159-0.165-0.285-0.198c-0.185-0.05-0.37-0.021-0.534,0.073
		c-0.329,0.188-0.495,0.437-0.298,0.841c-0.124,0.117-0.327,0.305-0.373,0.496c-0.11,0.466,0.253,0.558,0.361,0.896
		c-0.343,0.008-1.258,0.364-1.034,0.936c0.021,0.056,0.08,0.121,0.094,0.174c0.023,0.1-0.01,0.28-0.001,0.391
		c0.013,0.188,0.042,0.365,0.082,0.539h19.506C449.093,151.925,449.045,151.817,448.979,151.739z M436.153,148.102
		c0.026-0.034,0.058-0.057,0.091-0.072c0.038,0.116,0.083,0.234,0.133,0.344c-0.085-0.073-0.167-0.151-0.25-0.229
		C436.134,148.128,436.143,148.114,436.153,148.102z M437.149,149.309c-0.057,0.224-0.39,0.218-0.536,0.213
		c-0.31-0.01-0.689-0.244-0.873-0.551c-0.058-0.098-0.122-0.16-0.191-0.242c-0.075-0.089-0.119-0.138,0-0.188
		c0.166-0.074,0.31,0.021,0.461,0.071c0.012-0.067,0.022-0.146,0.037-0.226c0.396,0.374,0.812,0.691,1.104,0.9
		C437.149,149.294,437.149,149.302,437.149,149.309z M437.293,148.958c-0.031,0.014-0.099,0.022-0.13,0.05
		c-0.162-0.118-0.354-0.267-0.552-0.431c-0.104-0.159-0.189-0.37-0.261-0.577c0.095-0.01,0.195,0.006,0.281-0.007
		c0.102-0.018,0.188-0.062,0.296-0.046c0.097,0.015,0.158,0.123,0.231,0.189l0.02-0.021c0.045-0.058,0.093-0.116,0.144-0.172
		c0.006,0.239,0.021,0.582,0.064,0.969C437.359,148.926,437.33,148.942,437.293,148.958z M438.26,148.773
		c-0.197,0.018-0.339-0.028-0.499-0.146c-0.028-0.236-0.051-0.495-0.062-0.766c0.135,0.002,0.361-0.069,0.437,0.075
		c0.036,0.067,0.011,0.112,0.013,0.16c0.003,0.022-0.027,0.007-0.017,0.052c0.012,0.044,0.143,0.053,0.166,0.061
		c0.154,0.051,0.306,0.101,0.312,0.314C438.617,148.742,438.398,148.76,438.26,148.773z M444.682,148.312
		c-0.069,0.051-0.123,0.086-0.118,0.203c0.001,0.021,0.003,0.035,0.007,0.052c-0.237,0.139-0.487,0.265-0.732,0.374
		c0.155-0.194,0.299-0.421,0.415-0.626C444.397,148.281,444.544,148.272,444.682,148.312z M442.822,148.427
		c0.06,0.14,0.108,0.286,0.188,0.379c0.062,0.073,0.1,0.073,0.195,0.076c0.135,0.006,0.123-0.021,0.216-0.1
		c0.115-0.097,0.216-0.123,0.335-0.191l-0.029-0.038c0.102-0.066,0.216-0.13,0.333-0.179c-0.154,0.259-0.345,0.529-0.537,0.7
		c-0.426,0.172-0.812,0.293-1.065,0.365C442.603,149.078,442.726,148.725,442.822,148.427z M441.174,150.191
		c-0.178-0.246,0.283-0.71,0.479-0.776c-0.018-0.161-0.292-0.199-0.301-0.368c-0.011-0.255,0.393-0.187,0.521-0.225
		c0.017-0.146-0.053-0.469,0.039-0.587c0.046-0.062,0.062-0.02,0.123-0.042c0.134-0.052,0.302-0.156,0.443-0.144
		c0.03,0.002,0.059,0.012,0.083,0.022c-0.218,0.901-0.694,1.7-1.095,2.248C441.352,150.311,441.239,150.28,441.174,150.191z
		 M445.469,150.059c-0.107,0.158-0.533,0.016-0.65-0.064c-0.055,0.175-0.293,0.259-0.432,0.178c-0.174-0.103-0.125-0.31-0.144-0.451
		c-0.023-0.207-0.251-0.438-0.425-0.375c-0.135,0.051-0.211,0.351-0.333,0.416c-0.123,0.066-0.199-0.096-0.331-0.127
		c-0.155-0.037-0.158,0.062-0.27,0.139c-0.11,0.078-0.29,0.04-0.397,0.146c-0.103,0.103-0.014,0.144-0.08,0.262
		c-0.049,0.086-0.208,0.118-0.361,0.133c0.091-0.168,0.176-0.341,0.255-0.516c0.349-0.089,1.532-0.42,2.497-1.023
		c0.025,0.012,0.051,0.022,0.069,0.042c0.044,0.036,0.049,0.084,0.09,0.122c0.157,0.147,0.391,0.144,0.577,0.187
		c0.129,0.03,0.196,0.064,0.182,0.266c-0.119,0.054-0.382-0.022-0.461,0.095C445.291,149.618,445.546,149.947,445.469,150.059z"/>
	<path d="M375.345,100.259c0.535-0.342,0.866-1.208,0.506-1.815c-0.27-0.455-1.041-0.618-1.467-0.782
		c-0.523-0.207-1.109-0.463-1.673-0.453c0.021-0.826,1.36-1.226,1.97-1.235c0.359-1.34-2.139-1.892-2.854-2.21
		c0.57-0.764,2.099-1.154,2.474-1.989c-0.858-0.228-1.621-0.876-2.466-1.098c-0.425-0.11-0.926-0.014-1.36-0.029
		c-0.023-0.634,0.641-1.392,0.122-1.75c-0.434-0.303-1.557,0.097-1.872,0.473c0.03-0.945-0.878-1.623-1.571-1.906
		c-0.921-0.376-1.475-0.331-2.368-0.236c-0.317,0.034-1.026-0.024-1.246-0.308c-0.619-0.799,1.686-1.629,2.225-1.759
		c-0.104-0.786-1.151-2.057-1.662-2.608c-0.477-0.515-0.833-0.548-1.45-0.499c-0.279,0.021-0.316,0.137-0.645,0.06
		c-0.523-0.124-0.888-0.484-1.464-0.509c-0.722-0.031-0.741,0.476-1.233,0.943c-0.052-0.389,0.002-0.797-0.028-1.188
		c-1.152-0.187-2.376,0.304-3.366,0.901c0.028-1.003,1.343-2.565,2.105-3.084c-1.003-0.211-2.028-0.257-3.034-0.444
		c-0.7-0.128-1.274-0.189-1.874,0.04c-0.288,0.11-0.413,0.455-0.783,0.112c-0.399-0.364-0.179-1.176-0.276-1.642
		c-0.84-0.112-2.146,0.342-2.821,0.89c-0.345-0.479-0.365-1.176-0.532-1.737c-0.167-0.568-0.06-0.491-0.558-0.501
		c-0.441-0.006-0.988,0.35-1.387,0.516c-0.496,0.207-1.075,0.384-1.614,0.285c-0.563-0.104-1.128-0.799-1.748-0.569
		c-0.668,0.244-0.41,0.88-1.234,0.532c-0.716-0.307-1.195-0.538-1.965-0.521c-1.005,0.023-1.44,0.779-2.266,1.231l0.123,0.138
		c-0.592-0.276-1.983-0.482-2.618-0.278c-0.357,0.114-0.659,0.473-0.862,0.791c0.429,0.22,1.012,0.264,1.483,0.331
		c0.228,0.788-1.5,0.747-1.862,1.21c-0.346,0.439-0.082,0.314-0.076,0.679c0.003,0.325-0.093,0.609-0.128,0.942
		c0.671,0.047,1.554-0.033,2.079,0.417c0.56,0.477,0.597,0.955,0.158,1.497c-0.63,0.768-1.735,1.203-1.654,2.464
		c-0.809,0.174-1.887,0.579-2.71,0.318c-0.646-0.207-1.075-1.265-1.611-1.657c-0.053,0.4,0.008,0.813-0.037,1.219
		c-0.66,0.156-1.454-0.379-2.079-0.528c-0.205,0.317-0.036,0.68-0.276,0.927c-0.099,0.101-0.71,0.034-0.81,0.03
		c-0.597-0.033-1.056-0.287-1.625-0.399c-0.564-0.112-1.08,0.062-1.615,0.25c-0.56,0.194-1.385,0.279-1.751,0.834
		c0.498-0.047,1.966,0.176,2.221,0.78c0.164,0.385-0.118,0.489-0.495,0.715c-0.476,0.278-1.526,0.479-1.794,1.068
		c-0.228,0.492,0.182,0.648,0.438,0.979c-0.471,0.858-2.122,1.375-1.893,2.473c0.091,0.435,0.517,0.959,0.365,1.48
		c-0.412,0.079-2.076-0.252-2.33,0.326c-0.326,0.742,1.961,1.034,1.981,1.752c0.026,0.973-1.107,0.566-1.486,0.291
		c-0.653-0.474-3.048-2.919-2.874-0.534c0.041,0.551,0.241,0.721-0.2,1.029c-0.685,0.48-1.622,0.634-2.303,1.172
		c-0.402,0.316-0.377,0.383-0.325,0.915c0.021,0.21,0.192,0.357,0.064,0.558c-0.161,0.255-0.968,0.255-1.21,0.3
		c-0.626,0.115-2.339,0.228-2.459,1.232c-0.062,0.536,0.62,1.186,1.085,1.356c-0.097,0.606-1.808,1.433-1.343,2.312
		c0.503,0.95,1.802,0.078,2.444,0.002c0.315,0.729,1.034,1.229,1.767,1.189c1.028-0.055,1.792-1.008,2.733-1.323
		c0.521-0.176,0.509-0.129,0.927,0.394c0.119,0.146,0.641,0.675,0.668,0.867c0.056,0.41-0.091,0.341-0.367,0.64
		c-1.106,1.2-1.62,2.938-1.472,4.641c0.422,0.068,0.879,0.019,1.303,0.019c0.237,0,0.989-0.145,1.188-0.009
		c0.488,0.324,0.131,1.407,0.091,1.907c-1.153,0.271-2.883,0.974-3.584,2.037c0.632,0.237,1.236,0.42,1.85,0.736
		c-0.067,0.65-0.871,1.78-0.381,2.352c0.575,0.675,2.236-0.221,2.729-0.673c0.104,0.489,0.331,1.257,0.892,1.326
		c0.458,0.059,1.054-0.479,1.145-0.959c0.796-0.083,1.667,0.335,2.502,0.081c0.443-0.134,1.248-1.253,1.653-0.752
		c-0.382,1.04-0.993,1.965-0.091,2.816c0.727,0.687,2.157,1.364,3.083,0.854c0.386,1.077,1.573,1.331,2.178,2.179
		c0.213,0.296,0.279,0.779,0.495,1.098c0.614,0.909,1.505,1.297,2.44,1.635c0.185,0.062,0.917,0.475,1.146,0.276
		c0.213-0.181,0.091-0.581,0.107-0.833c0.026-0.49,0.023-0.572,0.25-0.613c1.522,1.359,3.534,2.692,5.715,2.846
		c0.238,0.836,0.697,1.694,1.084,2.617c-0.221,0.025-0.521-0.045-0.695-0.029c-0.38,0.042-0.27,0.076-0.494,0.369
		c-0.309,0.401-0.682,0.264-1.145,0.201c-0.379-0.049-1.874-0.306-1.72,0.601c0.106,0.046,0.196,0.082,0.307,0.123
		c0.099,0.357-0.58,0.653-0.793,0.78c-0.467,0.282-1.072,0.592-1.354,1.121c-0.501,0.939,1.446,0.533,1.812,0.376
		c-0.023,0.654-0.714,1.355-0.555,1.986c0.628,0.104,1.203-0.203,1.808-0.178c0.039,0.432-0.084,1.099,0.302,1.405
		c0.519,0.416,1.689-0.385,2.082-0.806l-0.211,0.238c0.053,0.085,0.564,0.864,2.688,2.916l0.027-0.056
		c0.354,4.012,0.547,10.293-0.94,14.326h4.702c0,0,0.271-3.537,0.227-8.021c0.698-1.559,2.137-2.054,2.153-2.06l0.014-0.005
		c0.003,0,0.016-0.01,0.016-0.01l-0.131-0.544c-0.063,0.019-1.24,0.423-2.066,1.67c-0.043-2.055-0.159-4.296-0.396-6.526
		c0.289,0.044,0.551,0.142,0.74,0.474c0.178,0.312,0.485,1.059,0.89,1.044c0.373-0.011,0.746-0.654,0.824-1.017
		c0.032-0.158-0.033-0.344,0.006-0.495c0.131-0.491,0.549-0.031,0.894,0.098c0.482,0.18,0.952,0.288,1.353,0.658
		c0.158,0.144,0.306,0.491,0.482,0.575c0.777,0.371,1.342-1.005,1.303-1.673c-0.055-0.928-0.71-0.701-1.267-1.199
		c0.255-0.503,0.631-1.297,1.126-1.561c-0.043-0.173-0.273-0.27-0.418-0.36c-0.135-0.103-0.279-0.192-0.428-0.266
		c-0.04-0.018-0.465-0.062-0.487-0.093c-0.176-0.245,0.123-0.68,0.188-0.951c0.049-0.21,0.042-0.49,0.151-0.655
		c-0.432-0.314-0.94-0.128-1.412-0.206c-0.333-0.058-0.16,0.01-0.353-0.28c-0.196-0.303-0.322-0.629-0.547-0.914
		c-0.177-0.222-0.405-0.399-0.66-0.542c0.395-0.607,0.856-1.306,1.347-2.03c0.688-0.221,2.432-0.833,4-1.836
		c0.011,0.009,0.021,0.017,0.033,0.021c0.895,0.498,1.869,0.865,2.807,1.257c0.292,0.122,0.977,0.562,1.298,0.521
		c-0.297-0.349-0.396-0.77-0.606-1.18c-0.226-0.44-0.73-0.861-0.726-1.389c0.729-0.087,1.849,0.271,2.488-0.153
		c-0.364-0.552,0.005-0.742,0.486-0.857c0.928-0.222,1.758,0.041,2.607-0.544c-0.122-0.384-0.508-0.578-0.812-0.81
		c-0.629-0.482-1.263-0.956-1.918-1.395c0.367-0.268,1.021-0.372,1.46-0.662c0.538-0.358,1.143-0.803,1.384-1.449
		c-0.458-0.479-1.136-0.462-1.588-0.894c-0.668-0.634-0.668-1.542-1.604-1.966c-0.292-0.135-0.663-0.348-0.844,0.008
		c0.124-0.469,0.369-0.252,0.672-0.323c1.086-0.257,2.174-0.42,3.224-0.87c0.218-0.092,0.769-0.522,1.021-0.501
		c0.21,0.017,0.14,0.221,0.347,0.272c0.28,0.073,0.398,0.208,0.655,0.012c0.585,0.979,1.298,0.426,2.089,0.593
		c0.531,0.108,2.057,0.823,1.885-0.32c-0.132-0.902-1.755-2.05-2.437-2.451c0.344-0.271,0.858-0.297,1.272-0.421
		c0.578-0.168,1.383-1.031,1.934-1.021c0.836,0.02,1.102,1.607,1.874,0.831c0.591-0.592,0.787-0.552,1.586-0.104
		c0.404,0.227,0.871,0.529,1.14,0.95c0.39-0.475,0.617-1.22,0.596-1.872c-0.024-0.737-0.144-0.939-0.747-1.137
		c-0.409-0.132-1.11-0.41-1.288-0.914c-0.18-0.51,0.438-1.267,0.401-1.797c-0.308-0.077-0.694-0.164-0.972-0.333
		c0.704-0.759-1.476-2.672-1.957-3.003c0.417-0.267,0.773-0.621,1.153-0.953c0.481-0.416,1.732-1.738,2.415-1.679
		c0.225,0.019,0.276,0.239,0.488,0.31c0.103,0.042,0.21,0.047,0.318,0.016c0.199,0.063,0.962,0.3,1.148,0.262
		C378.557,102.429,375.769,100.648,375.345,100.259z M358.667,100.944c-0.522,0.232-1.017,0.456-1.471,0.568l-0.448,0.109
		c-0.337,0.081-0.616,0.149-0.968,0.267c0.381-0.476,0.7-0.955,0.9-1.438c0.21-0.104,0.444-0.245,0.684-0.238
		C357.701,100.227,358.425,100.576,358.667,100.944z M352.818,101.482c0.198-0.502-0.15-1.087-0.259-1.539l0.253,0.142
		c0.223,0.06,0.564,0.05,0.758,0.128c0.181,0.072,0.304,0.261,0.478,0.332c0.511,0.198,0.498-0.081,0.941-0.328
		c0.378-0.21,0.576-0.072,0.802,0.088c-0.41,0.782-1.227,1.65-1.994,2.422c-0.002,0-0.004,0.003-0.006,0.003v0.006
		c-0.115,0.115-0.229,0.23-0.341,0.342c-0.283,0.283-0.546,0.549-0.781,0.8c-0.242-0.055-0.421-0.097-0.458-0.558
		c-0.021-0.264,0.323-0.721-0.237-0.753C352.126,102.058,352.645,101.917,352.818,101.482z M343.908,98.242
		c0.192,0.524,0.617,1.579,0.541,2.124c-0.062,0.419-0.354,0.385-0.64,0.687c-0.268,0.272-0.296,0.492-0.346,0.842
		c-0.116,0.786-0.407,0.89-0.796,1.499c-0.304,0.474-0.622,1.513-0.616,2.104c-0.068,0.056-0.139,0.056-0.208,0.006
		c-0.146-0.799,0.183-1.646,0.084-2.473c-0.087-0.007-0.163-0.021-0.234-0.034c0.103-0.294,0.278-0.6,0.467-0.932
		c0.363-0.641,0.777-1.361,0.736-2.196c-0.03-0.569-0.101-1.027-0.16-1.428c-0.051-0.316-0.087-0.589-0.098-0.85
		C343.125,97.499,343.579,97.33,343.908,98.242z M338.162,97.342c0.25-0.188,0.385-0.809,0.391-1.137
		c1.01-0.204,0.64,0.963,0.959,1.717c0.157,0.373,0.264,0.667,0.671,0.392c0.431-0.289,0.232-0.999,0.373-1.416
		c0.191-0.549,0.404-0.459,0.625-0.204c-0.161,0.682-0.077,1.241,0.024,1.899c0.059,0.379,0.122,0.809,0.149,1.326
		c0.02,0.361-0.115,0.72-0.305,1.089c-0.345-0.314-0.723-0.604-1.097-0.886c-0.65-0.482-1.264-0.942-1.62-1.485
		c-0.139-0.214-0.236-0.479-0.34-0.761c-0.05-0.139-0.106-0.286-0.169-0.434C337.936,97.449,338.047,97.429,338.162,97.342z
		 M334.489,98.27c0.057-0.357,0.434-1.035,0.732-1.229c0.169,0.462,0.448,0.974,0.915,0.966c0.347-0.005,0.515-0.357,0.708-0.562
		c0.146,0.238,0.249,0.502,0.354,0.786c0.117,0.32,0.237,0.65,0.438,0.958c0.444,0.678,1.152,1.208,1.834,1.721
		c0.392,0.29,0.792,0.593,1.128,0.915c-0.084,0.151-0.168,0.31-0.242,0.469c-0.134-0.066-0.163-0.052-0.432-0.018
		c-0.354,0.044-0.269,0.232-0.634,0.039c-0.44-0.23-0.25-0.537-0.467-0.875c-0.312-0.486-1.188-0.504-1.661-0.54
		c-0.07-1.322-0.966-0.934-1.909-1.259C334.677,99.439,334.381,98.961,334.489,98.27z M331.065,101.707
		c0.338-0.23,0.376-0.552,0.761-0.65c0.586-0.157,1.161,0.453,1.655,0.699v0.139c0.125,0.025,0.219,0.128,0.354,0.161
		c0.112,0.773,0.992,1.216,1.57,1.511c0.248,0.126,1.023,0.444,0.64,0.874c-0.416,0.466-1-0.665-1.309-0.843
		c-0.395,0.301-0.479,0.709-0.999,0.637c-0.422-0.058-0.834-0.447-1.256-0.525c0.045,0.329-0.123,0.521-0.313,0.688
		c-0.094-0.126-0.188-0.252-0.282-0.373c-0.701-0.916-1.368-1.796-1.749-2.724C330.441,101.349,330.745,101.463,331.065,101.707z
		 M328.938,101.344c0.094-0.014,0.185-0.022,0.273-0.036c0.166,0.492,0.401,0.961,0.675,1.415c-0.421-0.323-0.952-0.517-1.366-0.825
		l-0.718-0.545C328.111,101.277,328.501,101.402,328.938,101.344z M330.3,105.665c-0.213,0.169-0.536,0.204-0.742,0.048
		c-0.2,0.301-0.776,0.709-1.118,0.516c-0.39-0.226-0.486-1.218-0.663-1.678c-0.964-0.022-1.523-0.36-0.992-1.41
		c0.104-0.201,0.292-0.334,0.386-0.541c0.075-0.172,0.046-0.493,0.119-0.697l0,0l0.857,0.647c0.874,0.658,1.729,1.272,2.582,1.958
		c-0.073,0.083-0.136,0.17-0.162,0.273C330.468,105.187,330.686,105.354,330.3,105.665z M336.483,124.527
		c0.185-0.031,0.353-0.091,0.472-0.195c0.489-0.44-0.129-0.661-0.032-1.24c0.076-0.441,0.681-1.027,1.247-1.332
		c0.842,1.177,1.745,2.746,2.432,4.745C339.107,126.294,337.684,125.473,336.483,124.527z M342.002,135.562
		c0.25-0.262,0.5-0.523,0.743-0.827c0.253,0.091,0.59,0.179,0.843,0.354c-0.006,0.011-0.01,0.019-0.01,0.019s0.16,0.996,0.329,2.557
		C342.47,136.231,342.045,135.626,342.002,135.562z M344.817,130.201l-0.102,0.057c-0.036-0.029-0.46-0.357-0.946-0.664
		c-0.633-1.924-1.679-4.482-3.312-6.928c0.323-0.382,0.635-0.916,0.788-1.152c0.708,0.725,1.382,1.463,2.354,1.805
		c0.617,0.22,0.523,0.021,0.783-0.252C344.713,125.127,344.938,127.588,344.817,130.201z M346.364,121.223
		c0.876,0.031,1.91,0.312,2.253,0.603c0.115,0.097,0.215,0.242,0.309,0.401c-0.725,0.754-1.445,1.783-2.017,2.683
		C346.777,123.691,346.599,122.431,346.364,121.223z M349.041,130.292c-0.124-0.021-0.246-0.038-0.364-0.044
		c-0.381-0.021-0.813-0.078-0.995,0.373c-0.134-0.072-0.266-0.185-0.397-0.31c-0.031-0.948-0.091-2.267-0.214-3.738
		c0.693-1.188,1.586-2.521,2.36-3.396c0.05,0.081,0.1,0.158,0.152,0.228c-0.273,0.668-1.032,1.027-0.734,1.996
		c0.262,0.853,0.948,0.166,1.484,0.311c-0.033,0.526,0.609,0.434,0.938,0.399c0.285-0.03,0.558-0.086,0.826-0.141
		C351.122,127.206,350.019,128.704,349.041,130.292z M351.804,127.942c0.499-0.73,1.011-1.46,1.492-2.116
		c0.125,0.001,0.25,0.011,0.382,0.032c0.496,0.081,0.857,0.348,1.249,0.617C353.792,127.162,352.585,127.66,351.804,127.942z
		 M358.131,103.565c-0.367,0.244-0.868,0.186-1.263,0.454c0.144,0.198,0.229,0.735-0.03,0.92c-0.195,0.137-0.857-0.315-1.013-0.371
		c-0.382-0.142-0.802-0.235-1.198-0.155c0.049,0.73-0.063,1.139-0.674,0.69c-0.264-0.19-0.381-0.476-0.531-0.714
		c0.188-0.194,0.389-0.398,0.603-0.615l0.14-0.137c0.459-0.295,0.685-0.367,1.001-0.563c0.197-0.121,0.521-0.163,0.716-0.232
		c0.396-0.14,0.683-0.208,1.047-0.294l0.458-0.112c0.4-0.102,0.819-0.271,1.23-0.449c-0.053,0.164-0.104,0.323-0.123,0.466
		C358.435,102.919,358.545,103.286,358.131,103.565z"/>
	<path d="M3.606,157.026c0.868,0,1.776-0.344,2.575-0.695c-0.508,0.012-1.025,0.026-1.525-0.008
		c0.396-0.297,0.791-0.638,1.147-1.004c-0.786,0.174-1.702,0.447-2.498,0.339c0.513-0.312,1.086-0.687,1.329-1.312
		c-0.343,0.507-0.938,0.612-1.468,0.517c0.057-0.316-0.078-0.736-0.013-1.042c-0.365,0.213-0.816,0.335-1.232,0.268
		c0.359-0.556,0.79-1.774,0.507-2.542c-0.238-0.651-1.224-0.559-0.438-1.436c-0.751,0.028-1.737-0.48-1.99-1.331
		c0.948-0.079,2.024,0.119,2.832-0.562c-0.565,0.019-1.182-0.116-1.615-0.531c0.382-0.174,0.881-0.206,1.29-0.36
		c-1.09,0.152-1.786-0.833-2.498-1.763c0.457,0.679,0.926,0.656,1.568,0.826c0.748,0.197,1.564,0.013,2.225,0.125
		c0.925,0.149,1.754,0.538,2.732,0.521c-0.239-0.09-0.435-0.335-0.5-0.381c1.364-0.02,3.936-0.392,4.028-2.646
		c-0.497,0.38-1.169,1.206-1.677,0.64c-0.07,0.282-0.312,0.491-0.374,0.777c-0.294-0.315-0.517-0.855-0.777-1.189
		c-0.117,0.521-0.196,1.082-0.495,1.403c-0.122-0.514-0.378-0.995-0.634-1.399c-0.274,0.448-0.283,1.149-0.426,1.731
		c-0.07-0.225-0.348-0.537-0.43-0.812c-0.083,0.326-0.353,0.612-0.439,0.942c-0.356-0.367-0.46-1.121-0.699-1.644
		c-0.104,0.145-0.339,0.37-0.413,0.517c0.139-0.227,0.239-0.612,0.396-0.869c-0.57,0.229-1.169,0.115-1.764,0.147
		c0.478-0.359,1.069-0.438,1.425-0.937c-0.935-0.021-2.164,0.135-3.015-0.273c0.743-0.282,1.533-0.382,2.297-0.563
		c-0.095-0.321,0.048-0.42-0.177-0.717c1.194,0.246,2.593,0.411,3.8,0.317c-0.052-0.172-0.06-0.311-0.1-0.487
		c0.853-0.062,2.225,0.229,2.524-1.062c-0.47-0.237-0.878-0.182-1.168-0.402c-0.421,0.148-0.86,0.188-1.256-0.016l0.105-0.531
		c0.833,0.108,2.02-1.529,2.455-0.287c0.951-0.05,2.284-2.576,2.072-3.708c-0.452-0.103-0.895,0.294-1.33,0.381
		c-0.026-0.6-0.021-1.213-0.004-1.817c-0.334,0.515-0.716,1.014-1.151,1.328c0.443-0.749,0.794-1.558,0.825-2.521
		c-0.764,1.331-2.376,1.63-3.401,0.666c0.968-0.156,2.15-0.995,2.645-2.006c-0.443-0.097-0.903-0.258-1.329-0.389
		c0.809,0.064,2.16-0.502,2.78-1.077c-0.291,0.174-0.582,0.049-0.908,0.099c0.082-0.22,0.026-0.68,0.104-0.901
		c-0.846,0-1.741,0.066-2.549-0.308c0.013-0.043,0.018-0.302,0.013-0.349c0.808-0.058,2.18,0.153,2.645-0.66
		c0.943-0.166,2.242-0.604,2.854-1.464c-0.417-0.026-0.681-0.496-0.973-0.56c-0.368-0.077-0.816,0.138-1.25,0.119
		c0.152-0.206,0.222-0.582,0.413-0.799c-0.856-0.273-1.916-0.136-2.832-0.104c0.495-0.293,1.068-0.657,1.359-1.195
		c-0.851-0.059-1.972,0.275-2.75-0.183c1.399-0.285,3.897-0.18,5.101-1.366c-0.383-0.233-0.761-0.535-0.973-0.979
		c0.816,0.082,1.846-0.326,2.433-0.918c-0.191,0.022-0.43-0.047-0.625-0.049c0.004-0.161-0.018-0.34-0.018-0.499
		c-0.365,0.185-0.759,0.414-1.147,0.343c0.043-0.312-0.104-0.717-0.077-0.983c-0.431,0.338-0.869,0.7-1.299,1.027
		c-0.043-0.161-0.188-0.817-0.183-0.79c0.156-0.136,0.304-0.416,0.465-0.521c-1.051-0.084-2.116-0.003-3.171-0.181
		c0.465-0.253,1.068-0.256,1.585-0.396c0.005-0.146,0.043-0.338,0.052-0.481c1.038-0.129,2.402,0.066,2.285-1.741
		c-0.495,0.018-1.003,0.005-1.477-0.18c0.751-0.159,2.077-0.63,2.229-1.809c-0.804-0.023-1.524-0.133-2.307-0.391
		c0.579,0.011,1.533,0.093,1.373-0.97c0.721,1.403,3.454,0.746,4.414,0.139c-0.861-0.072-1.786-0.103-2.606-0.444
		c0.69-0.557,1.542-0.773,2.315-0.988c-0.886-0.037-1.764,0.017-2.628-0.322c0.359-0.223,0.755-0.335,1.155-0.402
		c-0.508-0.18-1.455,0.075-1.704-0.745c0.605-0.04,1.434,0.178,1.903-0.317c-0.125-0.146-0.373-0.751-0.482-0.873
		c1.321,0,2.319-0.47,3.58-1.06c-0.539-0.193-2.75-0.047-2.954-0.591c-0.5,0.204-1.186,0.049-1.694-0.239
		c0.361-0.187,0.843-0.299,1.247-0.485c-0.356-0.452-0.921-0.583-1.386-0.827c0.468-0.09,1.316,0.08,1.455-0.567
		c0.647,0.27,1.495,0.25,2.15,0.092c-0.169-0.039-0.387-0.257-0.539-0.318c0.356-0.366,0.969-0.448,1.395-0.793
		c-0.686,0.021-1.403,0.068-2.09-0.01c0.287-0.248,0.717-0.451,0.951-0.736c-0.373-0.065-0.682-0.36-0.999-0.593
		c0.465-0.015,0.965-0.049,1.381-0.312c0.331,0.886,1.49,0.514,2.18,0.486c-0.108-0.687-0.786-0.844-0.642-1.728
		c-0.439,0.031-0.865-0.085-1.229-0.438c0.134,0.009,0.43-0.101,0.621-0.073c-0.283-0.453-0.525-0.97-0.791-1.462
		c0.517,0.602,1.538,0.165,2.177,0.213c-0.161-0.068-0.296-0.237-0.452-0.319c0.104-0.078,0.352-0.476,0.46-0.548
		c-0.712-0.096-1.421-0.977-1.155-1.846c0.166-0.019,0.391-0.21,0.547-0.209c-0.147-0.087-0.346-0.343-0.555-0.397
		c0.59-0.224,1.346-0.327,1.786-1.055c-0.7-0.212-1.49-0.098-2.215-0.23c0.56-0.186,1.824-0.197,1.759-1.302
		c-0.278,0.1-0.587,0.021-0.864-0.134c0.09-0.23,0.308-0.457,0.547-0.591c-0.318-0.084-0.803-0.084-1.147-0.262
		c0.644-0.322,1.355,0.01,1.23-1.273c1.446,0.227,0.325-1.761,1.311-1.962c0.266,0.933-0.229,1.959-0.082,2.821
		c0.074,0.427,0.482,1.086,0.661,1.436c0.047,0.1,0.403,0.235,0.435,0.409c0.047,0.268-0.252,0.333-0.222,0.507
		c0.079,0.433,0.404,0.687,0.304,1.233c0.109-0.033,0.612-0.059,0.669,0.131c0.204,0.709-0.617,0.907-0.943,1.133
		c-0.308,0.21-0.677,0.058-0.669,0.618c0.013,1.424,2.346,0.586,3.002,0.694c-0.283,0.526-0.735,0.935-1.208,1.163
		c0.291,0.062,0.608,0.079,0.908,0.164c-0.486,0.439-1.71,0.694-2.306,0.723c0.108,0.592,1.025,0.767,1.525,0.749
		c0.465-0.016,0.808-0.45,1.207-0.48c0.296-0.024,0.23,0.337,0.525,0.381c0.366,0.047,0.747-0.033,1.051-0.186
		c-0.299,0.332-0.747,0.483-1.082,0.566c0.503,0.377,1.217,0.108,1.668,0.394c-0.5,0.346-1.068,0.259-1.633,0.306
		c-0.209,0.553-1.421,0.533-1.864,0.661c0.592,0.49,1.707,0.49,2.459,0.506c-0.122,0.938,0.282,1.115,0.929,1.071
		c0.169,0.392,0.03,0.338,0.391,0.483c-0.274,0.905-1.564,0.696-1.855-0.091c-0.021,0.507,0.092,1.01,0.209,1.492
		c-0.356-0.249-0.53-0.799-0.848-1.125c-0.117,0.643-0.164,1.45-0.199,2.127c0.543,0.127,1.212,0.782,1.772,0.433
		c0.361-0.225,0.299-1.007,0.777-1.175c0.535-0.188,0.53,0.304,0.93,0.564c0.139,0.09,0.383-0.064,0.535-0.006
		c0.147,0.062,0.143,0.24,0.286,0.305c0.299,0.131,0.543,0.332,0.861,0.386c-0.53-0.007-1.065-0.007-1.59-0.007
		c0.052,0.336,0.182,0.668,0.356,0.941c-0.474,0.097-1.1,0.054-1.534-0.236c0.078,0.39-0.009,0.751-0.316,0.876
		c0.473,0.549,1.906,0.31,2.424,0.372c0.351,0.044,0.595,0.394,0.911-0.122c0.096,0.18,0.443,1.424,0.448,1.62
		c0.008,0.615-0.644,0.997,0.025,1.612c-0.286,0.427-0.708,0.793-1.116,0.415c0.403,0.512,0.951,0.694,1.472,0.95
		c-0.061,0.05-0.082,0.024-0.134,0.087c0.486,0.393,1.038,0.658,1.625,0.604c-0.214,0.652-1.264,0.959-1.794,0.986
		c0.534,0.155,1.151,0.33,1.729,0.387c-0.851,0.769-2.22,0.291-2.707-0.873c-0.017,0.408,0.092,0.821,0.13,1.216
		c-0.278-0.316-0.525-0.678-0.774-1.03c0.179,0.729-0.212,0.969-0.599,0.479c-0.222,0.526-0.786,0.225-1.082-0.099
		c-0.087,0.058-0.266,0.207-0.396,0.299c0.682,1.669,1.404,0.945,2.481,1.125c0.248,0.039,0.578,0.265,1,0.243
		c0.403-0.021,0.834,0.025,1.224-0.106c-0.607,0.44-1.025,1.215-1.762,1.37c0.286,0.361,0.772,0.22,0.933,0.646
		c0.6,0.035,1.152-0.326,1.603-0.238c0.009,0,0.561,0.525,0.691,0.578c0.07,0.027,0.035,0.014,0,0.003
		c-0.144,0.982-1.073,0.318-0.995,1.613c-0.299-0.049-0.578,0.133-0.847,0.116c-0.226-0.018-0.452-0.313-0.838-0.195
		c0.078,1.187-1.182,0.268-1.43,1.16c-0.169,0.612,0.196,0.875,0.582,1.063c-0.294,0.352-0.743,0.37-1.094,0.204
		c0.686,1.036,4.591,1.425,5.655,0.601c-0.286,0.85-1.063,1.342-1.772,1.355c-0.008,0.052-0.012,0.105-0.012,0.16
		c-0.809,0.07-1.326-0.227-1.104,0.98c-0.174-0.072-0.404,0.046-0.6-0.057c-0.048,0.355-0.074,0.47-0.182,0.756
		c0.408,0.718,2.351,1.27,2.998,0.432c0.087-0.114,0.152-0.247,0.186-0.41c0.174,0.748,1.182,0.302,1.629,0.219
		c-0.105,0.064-0.213,0.144-0.317,0.218c-0.373,0.252-0.764,0.529-1.06,0.774c0.017,0.008,0.039,0.011,0.057,0.019
		c0.23,0.062,0.46,0.123,0.686,0.197c0.092,0.028,0.184,0.054,0.269,0.091c-0.417,0.326-1.028,0.312-1.264,0.796
		c0.508,0.234,1.334,0.107,1.872,0.004c0.019,0.155,0.092,0.271,0.188,0.366c0.139,0.142,0.343,0.229,0.578,0.264
		c0.147,0.025,0.303,0.032,0.46,0.021c0.082-0.007,0.166-0.019,0.243-0.03c0.23-0.043,0.444-0.113,0.587-0.205
		c-0.152,0.097-0.313,0.388-0.43,0.516c0.296,0.419,0.935,0.562,1.39,0.509c-0.724,0.387-1.542,0.113-2.289,0.236
		c-0.013,0.073-0.043,0.133-0.078,0.192c-0.295,0.511-1.238,0.549-1.65,0.392c-0.261,0.635-1.039,0.449-1.525,0.463
		c-0.017,0.157-0.065,0.258-0.13,0.334c-0.326,0.404-1.134-0.009-1.204,0.885c-0.008,0.103-0.022,0.197-0.008,0.342
		c0.604,0.217,3.115,0.495,3.645,0.083c-0.03,0.664-1.633,1.435-2.285,1.466c-0.039,0.002-0.087,0.011-0.117,0.008
		c0,0.111-0.022,0.259-0.017,0.353c-0.491,0.164-1.164,0.11-0.991,0.984c0.618,0.051,1.234,0.321,1.851,0.309
		c0.026,0,0.057,0.006,0.087,0.004c0.005,0.891,0.896,0.309,1.252,0.089c0.082,0.945-0.939,1.602-1.639,1.73
		c-0.025,0.009-0.065-0.005-0.095-0.002c-0.421,0.021-1.152-0.284-1.451-0.067c-0.125,0.084-0.282,0.684-0.381,0.848
		c0.539,0.53,1.946,0.381,2.627,0.247c0.079-0.017,0.144-0.06,0.217-0.09c0.552-0.228,1.004-0.775,1.478-0.945
		c0.721-0.255,0.938,0.527,1.637,0.611c0.217,0.021,0.452,0.212,0.679,0.067c0.408-0.267,0.312-1.286,0.938-1.221
		c0.035,0.324,0.017,0.66-0.048,0.977c0.665,0.306,1.399-0.193,2.038-0.477c-0.604,0.321-1.125,1.063-1.815,0.962
		c0.057,0.949-1.147,0.376-0.97,1.531c-0.017,0.01-0.212,0.103-0.217,0.104c0.431,0.63,1.326,0.227,1.851-0.071
		c0.122,1.179,1.217,1.562,1.924,2.033c-0.704-0.021-1.49-0.312-1.963-0.977c-0.092,0.595,0.09,1.1,0.291,1.623
		c-0.334-0.423-0.968-0.619-1.086-1.225c0.005,0.462,0.04,0.973-0.065,1.361c-0.338-0.109-0.607-0.482-0.847-0.699
		c-0.13,0.317-0.083,0.705-0.113,1.062c-0.569-0.02-1.052-0.622-1.59-0.843c0.021,0.133-0.295,0.474-0.273,0.625
		c-0.053,0.005-0.022,0.009,0,0.009c0.012,0.88,0.672,1.058,1.242,1.108c-0.105,0.549-0.079,1.281,0.569,1.268
		c-0.37,0.49-1.117,0.377-1.637,0.377c0.229,0.253,0.468,0.52,0.694,0.779c-0.457-0.01-0.917-0.017-1.373,0
		c0.027,0.155-0.047,0.403-0.017,0.571c-0.204-0.015-0.426,0.055-0.617-0.048c0.188,0.118,0.352,0.287,0.512,0.462
		c0.043,0.049,0.087,0.095,0.135,0.143c0.204,0.215,0.413,0.414,0.682,0.51c0.517,0.185,1.215-0.041,1.715-0.174
		c0.557-0.152,0.943-0.458,1.438-0.593c0.465-0.128,0.834,0.092,1.255-0.291c-0.256,0.488-0.717,0.735-1.082,1.074
		c0.113,0.061,0.234,0.086,0.361,0.117c0.122,0.034,0.248,0.062,0.383,0.077c0.517,0.057,1.068-0.003,1.555-0.019
		c-0.192,0.104-0.353,0.338-0.53,0.458c0.191,0.082,0.399,0.136,0.604,0.196c0.421,0.125,0.846,0.226,1.259,0.348
		c-0.33,0.639-1.186,0.886-1.789,0.98c0.621,0.504,1.628,0.495,2.389,0.73c-0.761,0.753-2.337,0.212-3.05-0.438
		c0.117,0.308,0.217,0.634,0.286,0.951c-0.425-0.054-0.842-0.293-1.246-0.492c0.03,0.176-0.035,0.408-0.014,0.564
		c-0.334-0.107-0.6-0.435-0.926-0.474c0.005,0.241-0.156,0.533-0.151,0.784c-0.383,0.038-0.774-0.084-1.135-0.263
		c-0.585,0.815-1.533-0.231-2.167-0.113c-0.174,0.028-0.309,0.49-0.505,0.572c-0.364,0.156-0.963-0.013-1.307-0.213
		c-0.178,0.396-0.477,0.726-0.738,1c0.876-0.021,1.764-0.103,2.428,0.277c0.396,0.229,0.408,0.597,1.003,0.597
		c0.548-0.002,0.591-0.384,1.048-0.51c0.672-0.18,1.246,0.23,2.045,0.186c0.865-0.044,1.782-0.21,2.646-0.174
		c-1.16,0.198-2.038,1.572-3.38,1.113c-0.008,0.107-0.003,0.223-0.017,0.335c-0.43,0.038-1.334-0.248-1.69,0.038
		c-0.304,0.244-0.248,0.86-0.503,1.192H3.063C3.306,157.68,3.506,157.467,3.606,157.026z"/>
	
		<linearGradient id="SVGID_3_" gradientUnits="userSpaceOnUse" x1="716.3779" y1="130.7761" x2="753.585" y2="130.7761" gradientTransform="matrix(-1 0 0 -1 868.3984 205.9351)">
		<stop  offset="0" style="stop-color:#000000"/>
		<stop  offset="0.4944" style="stop-color:#666666"/>
		<stop  offset="1" style="stop-color:#000000"/>
	</linearGradient>
	<rect x="114.814" y="74.45" fill="url(#SVGID_3_)" width="37.207" height="1.417"/>
	
		<linearGradient id="SVGID_4_" gradientUnits="userSpaceOnUse" x1="716.3779" y1="117.0818" x2="753.585" y2="117.0818" gradientTransform="matrix(-1 0 0 -1 868.3984 205.9351)">
		<stop  offset="0" style="stop-color:#000000"/>
		<stop  offset="0.4944" style="stop-color:#666666"/>
		<stop  offset="1" style="stop-color:#000000"/>
	</linearGradient>
	<rect x="114.814" y="88.144" fill="url(#SVGID_4_)" width="37.207" height="1.418"/>
	
		<linearGradient id="SVGID_5_" gradientUnits="userSpaceOnUse" x1="716.3779" y1="103.5535" x2="753.585" y2="103.5535" gradientTransform="matrix(-1 0 0 -1 868.3984 205.9351)">
		<stop  offset="0" style="stop-color:#000000"/>
		<stop  offset="0.4944" style="stop-color:#666666"/>
		<stop  offset="1" style="stop-color:#000000"/>
	</linearGradient>
	<rect x="114.814" y="101.674" fill="url(#SVGID_5_)" width="37.207" height="1.417"/>
	
		<linearGradient id="SVGID_6_" gradientUnits="userSpaceOnUse" x1="716.3779" y1="90.0217" x2="753.585" y2="90.0217" gradientTransform="matrix(-1 0 0 -1 868.3984 205.9351)">
		<stop  offset="0" style="stop-color:#000000"/>
		<stop  offset="0.4944" style="stop-color:#666666"/>
		<stop  offset="1" style="stop-color:#000000"/>
	</linearGradient>
	<rect x="114.814" y="115.205" fill="url(#SVGID_6_)" width="37.207" height="1.417"/>
	
		<linearGradient id="SVGID_7_" gradientUnits="userSpaceOnUse" x1="716.3779" y1="76.4924" x2="753.585" y2="76.4924" gradientTransform="matrix(-1 0 0 -1 868.3984 205.9351)">
		<stop  offset="0" style="stop-color:#000000"/>
		<stop  offset="0.4944" style="stop-color:#666666"/>
		<stop  offset="1" style="stop-color:#000000"/>
	</linearGradient>
	<rect x="114.814" y="128.734" fill="url(#SVGID_7_)" width="37.207" height="1.417"/>
	
		<linearGradient id="SVGID_8_" gradientUnits="userSpaceOnUse" x1="716.3779" y1="62.9622" x2="753.585" y2="62.9622" gradientTransform="matrix(-1 0 0 -1 868.3984 205.9351)">
		<stop  offset="0" style="stop-color:#000000"/>
		<stop  offset="0.4944" style="stop-color:#666666"/>
		<stop  offset="1" style="stop-color:#000000"/>
	</linearGradient>
	<rect x="114.814" y="142.264" fill="url(#SVGID_8_)" width="37.207" height="1.417"/>
	
		<linearGradient id="SVGID_9_" gradientUnits="userSpaceOnUse" x1="334.7471" y1="342.5847" x2="373.7305" y2="342.5847" gradientTransform="matrix(0 -1 1 0 -165.95 488.8962)">
		<stop  offset="0" style="stop-color:#000000"/>
		<stop  offset="0.0167" style="stop-color:#101010"/>
		<stop  offset="0.0509" style="stop-color:#2B2B2B"/>
		<stop  offset="0.0903" style="stop-color:#414141"/>
		<stop  offset="0.1363" style="stop-color:#525252"/>
		<stop  offset="0.1932" style="stop-color:#5D5D5D"/>
		<stop  offset="0.2729" style="stop-color:#646464"/>
		<stop  offset="0.4944" style="stop-color:#666666"/>
		<stop  offset="0.6675" style="stop-color:#646464"/>
		<stop  offset="0.7575" style="stop-color:#5C5C5C"/>
		<stop  offset="0.8285" style="stop-color:#4E4E4E"/>
		<stop  offset="0.8894" style="stop-color:#3B3B3B"/>
		<stop  offset="0.9439" style="stop-color:#232323"/>
		<stop  offset="0.9931" style="stop-color:#050505"/>
		<stop  offset="1" style="stop-color:#000000"/>
	</linearGradient>
	<rect x="176.104" y="115.166" fill="url(#SVGID_9_)" width="1.063" height="38.983"/>
	
		<linearGradient id="SVGID_10_" gradientUnits="userSpaceOnUse" x1="334.7471" y1="386.0281" x2="373.7305" y2="386.0281" gradientTransform="matrix(0 -1 1 0 -165.95 488.8962)">
		<stop  offset="0" style="stop-color:#000000"/>
		<stop  offset="0.0167" style="stop-color:#101010"/>
		<stop  offset="0.0509" style="stop-color:#2B2B2B"/>
		<stop  offset="0.0903" style="stop-color:#414141"/>
		<stop  offset="0.1363" style="stop-color:#525252"/>
		<stop  offset="0.1932" style="stop-color:#5D5D5D"/>
		<stop  offset="0.2729" style="stop-color:#646464"/>
		<stop  offset="0.4944" style="stop-color:#666666"/>
		<stop  offset="0.6675" style="stop-color:#646464"/>
		<stop  offset="0.7575" style="stop-color:#5C5C5C"/>
		<stop  offset="0.8285" style="stop-color:#4E4E4E"/>
		<stop  offset="0.8894" style="stop-color:#3B3B3B"/>
		<stop  offset="0.9439" style="stop-color:#232323"/>
		<stop  offset="0.9931" style="stop-color:#050505"/>
		<stop  offset="1" style="stop-color:#000000"/>
	</linearGradient>
	<rect x="219.547" y="115.166" fill="url(#SVGID_10_)" width="1.063" height="38.983"/>
	
		<linearGradient id="SVGID_11_" gradientUnits="userSpaceOnUse" x1="334.7471" y1="328.0808" x2="373.7305" y2="328.0808" gradientTransform="matrix(0 -1 1 0 -165.95 488.8962)">
		<stop  offset="0" style="stop-color:#000000"/>
		<stop  offset="0.0167" style="stop-color:#101010"/>
		<stop  offset="0.0509" style="stop-color:#2B2B2B"/>
		<stop  offset="0.0903" style="stop-color:#414141"/>
		<stop  offset="0.1363" style="stop-color:#525252"/>
		<stop  offset="0.1932" style="stop-color:#5D5D5D"/>
		<stop  offset="0.2729" style="stop-color:#646464"/>
		<stop  offset="0.4944" style="stop-color:#666666"/>
		<stop  offset="0.6675" style="stop-color:#646464"/>
		<stop  offset="0.7575" style="stop-color:#5C5C5C"/>
		<stop  offset="0.8285" style="stop-color:#4E4E4E"/>
		<stop  offset="0.8894" style="stop-color:#3B3B3B"/>
		<stop  offset="0.9439" style="stop-color:#232323"/>
		<stop  offset="0.9931" style="stop-color:#050505"/>
		<stop  offset="1" style="stop-color:#000000"/>
	</linearGradient>
	<rect x="161.599" y="115.166" fill="url(#SVGID_11_)" width="1.063" height="38.983"/>
	
		<linearGradient id="SVGID_12_" gradientUnits="userSpaceOnUse" x1="600.2275" y1="24.509" x2="637.4346" y2="24.509" gradientTransform="matrix(-2.8788 -0.0297 0.0084 -0.8126 1989.293 150.3055)">
		<stop  offset="0" style="stop-color:#000000"/>
		<stop  offset="0.4944" style="stop-color:#666666"/>
		<stop  offset="1" style="stop-color:#000000"/>
	</linearGradient>
	<polygon fill="url(#SVGID_12_)" points="154.447,112.035 261.558,113.14 261.569,111.988 154.459,110.883 	"/>
	<rect x="92.303" y="138.753" width="8.098" height="16.001"/>
	<rect x="72.843" y="138.035" width="4.072" height="8.045"/>
	<rect x="81.399" y="138.035" width="4.071" height="8.045"/>
	<polygon points="59.072,155.158 53.717,155.158 53.717,137.376 59.072,136.568 	"/>
	<rect x="89.372" y="94.817" fill="#404040" width="4.718" height="6.921"/>
	<polygon fill="#262626" points="88.447,100.978 89.395,101.726 89.395,94.817 87.291,95.858 87.291,100.958 	"/>
</g>
<g id="foreground">
	<g>
		<path fill="none" d="M732.309,154.168c0.011-0.035,0.019-0.067,0.027-0.103c-0.019,0.014-0.035,0.028-0.053,0.043
			C732.292,154.128,732.301,154.15,732.309,154.168z"/>
		<path d="M732.336,154.066c0.182-0.673,0.344-1.319,0.503-1.948c-0.673-0.705-1.332-1.152-2.049-1.47
			c0.588,1.257,1.084,2.521,1.493,3.461C732.301,154.094,732.318,154.08,732.336,154.066z"/>
		<path d="M727.65,149.776c-0.354-0.076-0.726-0.157-1.12-0.251c-1.271-0.3-2.238-0.812-3.292-0.944
			c-1.719-0.217-3.432,1.23-4.133-1.312c-1.79,0.266-2.917,2.1-4.491,3.052c-0.021-0.565-0.443-1.464-0.312-2.179
			c-0.899,1.015-1.34,2.629-2.323,3.676c-1.571-1.909-1.993-4.917-2.07-7.312c-1.033,1.888-1.991,3.813-3.071,5.676
			c-0.345-1.385-0.17-3.081-0.587-4.231c-0.814,1.343-2.238,3.528-3.887,3.281c-0.11-0.906-0.4-1.958-0.741-2.671
			c-1.411,0.837-2.749,1.913-4.332,2.239c0.185-0.774-0.354-1.345-0.365-1.877c-1.497,0.391-2.786,1.176-4.258,1.66
			c0.543-0.724,0.31-1.445,0.521-2.131c-2.896,0.18-5.604,2.736-8.464,2.384c1.317-1.398,2.398-2.996,3.647-4.448
			c-3.073,0.309-6.543,2.508-9.173,4.065c0.793-2.089,2.649-4.027,3.09-5.977c-2.483,1.012-4.625,3.176-6.181,5.304
			c-0.001-2.272,1.103-4.095,1.482-6.277c-1.814,2.5-3.354,4.665-4.538,7.646c-1.388-2.193-2.383-4.645-3.056-7.141
			c-1.667,1.07-1.455,3.458-2.075,5.171c-1.268-1.547-1.513-4.325-3.361-5.4c0.135,1.414,0.403,5.097-1.066,6.021
			c-0.62,0.391-1.94-0.138-2.616-0.062c-0.451,0.051-2.709,0.473-3.031,0.396c-1.288-0.298-1.559-1.441-2.27-1.643
			c-2.255-0.636-5.045,1.244-7.744,0.968c0.111-0.418,0.016-0.926,0.109-1.342c-1.855,0.194-3.722,0.943-5.391,1.783
			c1.343-0.759,1.972-2.351,2.319-3.84c-3.086,0.435-6.256,2.521-8.888,4.104c0.006-1.518,1.637-3.147,2.74-4.062
			c-3.008,0.75-5.205,3.764-8.202,4.735c0.063-2.39,2.513-3.918,3.168-6.067c-2.726,1.375-4.269,3.748-6.163,5.703
			c-0.192-2.008,0.079-4.105-0.139-6.107c-1.102,1.545-1.672,4.104-1.709,6.131c-0.978-2.533-1.724-5.642-4.76-7.044
			c1.207,2.433,2.91,6.944-0.204,7.585c0.076-0.016-3.148-0.896-3.851-0.935c-1.341-0.072-1.192-0.563-3.309-0.134
			c-1.867,0.38-2.796,1.168-4.572,0.526c0.287-0.886-0.197-1.681-0.239-2.378c-2.493,0.085-5.053,1.005-7.113,2.396
			c0.702-0.859,1.119-1.949,0.896-3.036c-3.038-0.408-4.771,2.444-7.101,3.725c0.427-2.638,2.516-4.812,2.949-7.173
			c-2.193,0.729-3.716,4.41-4.688,6.392c0.117-3.021,0.198-6.164-0.02-9.161c-1.738,2.075-2.036,6.487-2.069,9.27
			c-1.474-2.005-2.043-5.081-4.667-6.669c0.197,1.892,1.099,3.985,0.924,5.938c-0.997-0.647-2.254-1.599-2.661-2.796
			c-0.764,5.817-10.576,2.604-13.99,2.478c-2.441-0.092-4.56,1.482-7.026,0.896c-0.692-3.549-5.797,2.04-7.304-1.191
			c-0.595,0.22-1.68,0.234-2.316,0.629c-0.021-0.399-0.471-1.026-0.386-1.692c-1.195,0.308-2.221,1.182-3.218,1.932
			c0.178-1.193,0.258-2.435,0.133-3.631c-1.688,0.814-2.891,2.988-3.735,4.708c-0.045-1.818,0.465-3.605,0.295-5.385
			c-1.858,1.138-1.481,3.938-2.58,5.677c-0.739-1.461-1.231-3.11-2.139-4.562c0.201,1.447-0.453,4.104-1.746,4.532
			c-1.451,0.479-1.494-0.674-2.591-0.771c-0.713-0.062-1.729,0.385-2.469,0.496c-1.902,0.287-3.604,0.55-5.785,0.409
			c-2.528-0.163-2.555,0.425-4.823,1.04c-2.19,0.595-4.831-0.468-7.062,0.034c-2.454,0.552-3.938,1.625-6.534,1.651
			c-2.069,0.021-3.553-0.052-5.451-0.774c-2.461-0.938-3.101-2.85-5.825-0.869c-0.205-0.205-0.474-0.409-0.692-0.622
			c-1.452,1.964-2.941,0.885-3.773-0.971c-0.95,0.804-2.236,1.308-2.964,0.179c-0.962,1.853-2.102,1.329-3.485,2.009
			c-2.346-2.115-2.364-0.825-4.729,0.026c-1.654,0.596-3.556,0.226-5.383,0.342c-4.411,0.281-8.906-0.418-13.342-0.938
			c-3.388-0.397-6.52-0.254-9.883-0.059c-0.886,0.052-1.04-0.469-2.097-0.296c-1.304,0.214-2.622,1.211-3.961,1.547
			c-1.857,0.467-3.616,0.421-5.528,0.428l0.341,2.727c5.229,0.862,10.027,3.396,15.044,5.049c4.961,1.635,10.446,1.264,15.591,1.009
			c6.787-0.335,13.564-0.265,20.36-0.265c27.124,0,54.192-0.807,81.297,0.264c11.173,0.441,22.473,0.2,33.644-0.157
			c8.276-0.264,16.079-2.146,24.272-2.873c16.082-1.427,32.198,0.371,48.285-0.973c4.759-0.396,9.523-0.969,14.277-1.33
			c6.507-0.493,13.015,0.699,19.525,0.644c2.752-0.023,7.083,0.265,10.714-0.511l-0.372-1.803
			C727.781,152.614,727.713,151.193,727.65,149.776z"/>
		<path d="M801.552,150.375c-0.853,0.794-0.677-0.865-1.782-0.708c-0.06-3.13-0.797-6.596-1.041-9.787
			c-1.243,2.393-1.354,9.449-5.736,8.854c0.182-0.632,0.363-1.29,0.535-1.932c-2.721-0.556-6.802,1.536-9.208,2.907
			c0.442-3.275,3.479-5.518,4.317-8.424c-3.083,0.675-8.954,4.66-9.612,7.88c-0.003-3.553,1.325-6.832,3.156-9.832
			c-2.997,1.229-5.18,5.607-6.756,8.207c-0.35-0.596-0.604-1.265-0.747-1.95c-1.98,0.447-3.412,2.78-5.009,3.928
			c-0.263-0.979-0.546-1.971-0.479-2.994c-2.11,0.808-4.244,2.199-6.028,3.6c0.331-0.641,0.153-1.202,0.217-1.851
			c-2.527,0.593-5.008,2.854-6.521,4.957c0.248-1.743,1.14-3.236,2.012-4.733c0.734-1.26,2.842-3.405,2.828-4.697
			c-4.378,0.985-10.479,5.077-12.091,9.432c-1.208-1.338-1.163-3.27-2.05-4.769c-2.331,0.755-3.998,2.667-5.987,3.943
			c-0.338-1.164-0.688-2.394-1.285-3.421c-1.305,0.705-1.758,2.143-2.653,3.233c-1.463-1.557-2.288-4.065-2.688-6.147
			c-1.084,2.076-1.577,3.97-2.103,6.048c-0.159,0.629-0.32,1.275-0.503,1.948c-0.01,0.034-0.018,0.066-0.026,0.103
			c-0.009-0.019-0.019-0.04-0.025-0.06c-0.409-0.94-0.905-2.204-1.493-3.461c-0.869-1.857-1.939-3.692-3.242-4.427
			c0,1.176,0.049,2.363,0.103,3.555c0.062,1.417,0.131,2.838,0.131,4.255l0.373,1.803l1.069,5.176
			c5.768,1.786,12.539,0.964,18.504,0.963c10.366-0.002,20.705-1.556,31.046-2.357c4.685-0.363,9.371-0.688,14.066-0.854
			c1.645-0.059,2.975,0.509,4.629-0.266c1.563-0.73,2.268-0.383,2.614-2.3C800.535,153.714,801.732,153.916,801.552,150.375z"/>
	</g>
	<g>
		<g>
			<rect y="148.859" fill="#404040" width="18.217" height="0.711"/>
			<rect y="152.348" fill="#404040" width="18.217" height="0.714"/>
			<path fill="#404040" d="M18.78,148.075c0-0.257-0.21-0.464-0.47-0.464c-0.253,0-0.463,0.207-0.463,0.464v9.258h0.933V148.075z"/>
		</g>
		<g>
			<rect x="18.203" y="148.859" fill="#404040" width="17.119" height="0.711"/>
			<rect x="18.203" y="152.348" fill="#404040" width="17.119" height="0.714"/>
			<path fill="#404040" d="M35.883,148.075c0-0.257-0.205-0.464-0.463-0.464c-0.255,0-0.465,0.207-0.465,0.464v9.258h0.928V148.075z
				"/>
		</g>
		<g>
			<rect x="35.307" y="148.859" fill="#404040" width="17.123" height="0.711"/>
			<rect x="35.307" y="152.348" fill="#404040" width="17.123" height="0.714"/>
			<path fill="#404040" d="M52.991,148.075c0-0.257-0.21-0.464-0.464-0.464c-0.258,0-0.469,0.207-0.469,0.464v9.258h0.933V148.075z"
				/>
		</g>
		<g>
			<rect x="52.415" y="148.859" fill="#404040" width="17.123" height="0.711"/>
			<rect x="52.415" y="152.348" fill="#404040" width="17.123" height="0.714"/>
			<path fill="#404040" d="M70.096,148.075c0-0.257-0.205-0.464-0.465-0.464c-0.253,0-0.463,0.207-0.463,0.464v9.258h0.928V148.075z
				"/>
		</g>
		<g>
			<rect x="69.523" y="148.859" fill="#404040" width="17.119" height="0.711"/>
			<rect x="69.523" y="152.348" fill="#404040" width="17.119" height="0.714"/>
			<path fill="#404040" d="M87.204,148.075c0-0.257-0.205-0.464-0.463-0.464c-0.26,0-0.465,0.207-0.465,0.464v9.258h0.928V148.075z"
				/>
		</g>
		<g>
			<rect x="86.628" y="148.859" fill="#404040" width="17.123" height="0.711"/>
			<rect x="86.628" y="152.348" fill="#404040" width="17.123" height="0.714"/>
			<path fill="#404040" d="M104.312,148.075c0-0.257-0.21-0.464-0.464-0.464c-0.259,0-0.465,0.207-0.465,0.464v9.258h0.929V148.075z
				"/>
		</g>
		<g>
			<rect x="103.736" y="148.859" fill="#404040" width="17.123" height="0.711"/>
			<rect x="103.736" y="152.348" fill="#404040" width="17.123" height="0.714"/>
			<path fill="#404040" d="M121.421,148.075c0-0.257-0.21-0.464-0.47-0.464c-0.253,0-0.463,0.207-0.463,0.464v9.258h0.933V148.075z"
				/>
		</g>
		<g>
			<rect x="120.844" y="148.859" fill="#404040" width="17.124" height="0.711"/>
			<rect x="120.844" y="152.348" fill="#404040" width="17.124" height="0.714"/>
			<path fill="#404040" d="M138.524,148.075c0-0.257-0.205-0.464-0.465-0.464c-0.253,0-0.463,0.207-0.463,0.464v9.258h0.928V148.075
				z"/>
		</g>
		<g>
			<rect x="137.954" y="148.859" fill="#404040" width="17.118" height="0.711"/>
			<rect x="137.954" y="152.348" fill="#404040" width="17.118" height="0.714"/>
			<path fill="#404040" d="M155.633,148.075c0-0.257-0.21-0.464-0.464-0.464c-0.259,0-0.464,0.207-0.464,0.464v9.258h0.928V148.075
				L155.633,148.075z"/>
		</g>
		<g>
			<rect x="155.057" y="148.859" fill="#404040" width="17.123" height="0.711"/>
			<rect x="155.057" y="152.348" fill="#404040" width="17.123" height="0.714"/>
			<path fill="#404040" d="M172.742,148.075c0-0.257-0.21-0.464-0.47-0.464c-0.253,0-0.463,0.207-0.463,0.464v9.258h0.933V148.075z"
				/>
		</g>
		<g>
			<rect x="172.165" y="148.859" fill="#404040" width="17.124" height="0.711"/>
			<rect x="172.165" y="152.348" fill="#404040" width="17.124" height="0.714"/>
			<path fill="#404040" d="M189.845,148.075c0-0.257-0.205-0.464-0.465-0.464c-0.253,0-0.463,0.207-0.463,0.464v9.258h0.928V148.075
				z"/>
		</g>
		<g>
			<rect x="189.274" y="148.859" fill="#404040" width="17.118" height="0.711"/>
			<rect x="189.274" y="152.348" fill="#404040" width="17.118" height="0.714"/>
			<path fill="#404040" d="M206.954,148.075c0-0.257-0.205-0.464-0.464-0.464c-0.26,0-0.465,0.207-0.465,0.464v9.258h0.929V148.075z
				"/>
		</g>
		<g>
			<rect x="206.377" y="148.859" fill="#404040" width="17.123" height="0.711"/>
			<rect x="206.377" y="152.348" fill="#404040" width="17.123" height="0.714"/>
			<path fill="#404040" d="M224.063,148.075c0-0.257-0.21-0.464-0.465-0.464c-0.259,0-0.464,0.207-0.464,0.464v9.258h0.929V148.075z
				"/>
		</g>
		<g>
			<rect x="223.486" y="148.859" fill="#404040" width="17.124" height="0.711"/>
			<rect x="223.486" y="152.348" fill="#404040" width="17.124" height="0.714"/>
			<path fill="#404040" d="M241.167,148.075c0-0.257-0.205-0.464-0.465-0.464c-0.254,0-0.464,0.207-0.464,0.464v9.258h0.929V148.075
				z"/>
		</g>
	</g>
</g>
</svg>
