<?xml version="1.0" encoding="utf-8"?>
<!-- Generator: Adobe Illustrator 16.0.0, SVG Export Plug-In . SVG Version: 6.00 Build 0)  -->
<!DOCTYPE svg PUBLIC "-//W3C//DTD SVG 1.1//EN" "http://www.w3.org/Graphics/SVG/1.1/DTD/svg11.dtd">
<svg version="1.1" id="Layer_2_copy" xmlns="http://www.w3.org/2000/svg" xmlns:xlink="http://www.w3.org/1999/xlink" x="0px"
	 y="0px" width="2628px" height="2628px" viewBox="0 0 2628 2628" enable-background="new 0 0 2628 2628" xml:space="preserve">
<g>
	<path fill="#FFFFFF" d="M1098.492,1340.26c141.282,22.31,277.668-22.423,376.776-110.634
		c18.822-16.752,36.303-35.068,52.213-54.796c39.297-48.723,69.034-106.028,85.878-169.484
		c-80.481,32.428-169.54,46.248-261.018,36.977c-9.652-2.562-19.528-4.659-29.608-6.25c-10.297-1.626-20.551-2.679-30.734-3.205
		c-35.01-1.808-69.162,2.76-101.201,12.766c-102.31,31.954-183.02,119.428-200.87,232.47c-1.57,9.943-2.615,19.848-3.159,29.687
		C1021.704,1322.981,1059.114,1334.041,1098.492,1340.26z"/>
	<path fill="#FFFFFF" d="M1810.139,540.164c-16.545-4.712-32.947-10.562-49.108-17.575c-6.022-3.842-12.298-7.416-18.821-10.689
		c-6.665-3.344-13.424-6.287-20.25-8.856c-81.786-30.785-173.303-6.617-229.557,57.581c-11.431,13.045-21.409,27.738-29.551,43.963
		c-3.229,6.435-6.092,12.957-8.598,19.543c-1.053,2.768-2.029,5.55-2.958,8.339c16.155,10.101,32.92,19.545,50.292,28.262
		c14.785,7.418,29.731,14.157,44.8,20.267c0.552,0.226,1.105,0.439,1.658,0.662c12.94,5.203,25.967,9.954,39.067,14.209
		c-0.212-0.462-0.424-0.925-0.638-1.386c72.631,19.315,148.229,12.547,214.704-16.273c17.52-7.595,34.41-16.706,50.439-27.292
		c37.357-24.672,70.063-57.271,95.319-96.858C1901.631,557.446,1855.354,553.041,1810.139,540.164z"/>
	<path fill="#FFFFFF" d="M1610.723,759.132c-22.26-2.978-44.543-7.544-66.714-13.765c-7.96-3.67-16.181-6.971-24.656-9.866
		c-8.657-2.957-17.363-5.412-26.088-7.401c-17.054-3.888-34.179-5.95-51.149-6.307c-108.198-2.276-210.104,64.928-246.954,172.807
		c-2.856,8.36-5.253,16.766-7.205,25.19c27.914,18.398,58.59,33.596,91.697,44.906c120.961,41.32,248.009,21.767,347.829-42.297
		c8.035-5.157,15.894-10.602,23.559-16.327c8.377-6.257,16.525-12.843,24.417-19.757c41.314-36.202,75.659-81.264,99.782-133.586
		C1722.027,764.097,1666.458,766.589,1610.723,759.132z"/>
	<path fill="#FFFFFF" d="M2092.557,233.41c-48.125-22.99-103.051-33.257-159.957-26.898
		c-127.807,14.281-227.402,108.078-255.035,226.563c50.852,36.169,114.678,54.494,181.574,47.019
		c64.404-7.197,120.752-37.091,161.996-80.802c9.408-9.972,18.039-20.653,25.791-31.96c34.99-36.124,82.135-60.877,135.863-67.332
		C2157.266,272.332,2126.62,249.682,2092.557,233.41z"/>
	<path fill="#FFFFFF" d="M1230.813,2413.117c20.691,5.25,43.826,10.849,66.133,15.222c64.894,12.723,131.93,19.465,200.514,19.618
		c-185.639-34.645-326.163-197.504-326.163-393.191c0-220.914,179.087-400,400-400c14.273,0,28.369,0.754,42.256,2.212
		c-64.204-35.893-138.204-56.358-216.987-56.358c-168.505,0-315.146,93.586-390.8,231.614
		c-16.961,30.946-30.345,64.128-39.616,98.987c-32.975-113.162-50.675-232.832-50.675-356.641
		c0-436.907,220.182-822.364,555.622-1051.526c19.354-12.101,39.08-23.745,59.187-34.89c-0.542-0.305-1.086-0.608-1.629-0.911
		c42.095-30.434,75.513-73.587,93.763-126.064c0.87-2.502,1.717-5.02,2.518-7.564c2.021-6.426,3.781-12.872,5.288-19.326
		c12.067-36.45,29.282-69.795,50.579-99.484c2.642-3.683,5.346-7.31,8.111-10.879c14.295-18.449,30.212-35.365,47.473-50.603
		c0.456-0.402,0.911-0.804,1.368-1.204c-1.275-0.027-2.551-0.048-3.825-0.062c-38.271-0.421-75.91,5.145-111.706,16.065
		c-9.136,2.787-18.155,5.917-27.03,9.392c-7.367,2.884-14.636,6.005-21.799,9.35c-90.77,42.378-164.153,121.215-196.648,224.268
		c-0.025,0.079-0.051,0.157-0.076,0.235c-11.007,34.987-16.554,70.387-17.121,105.28c-0.095,5.802-0.035,11.587,0.144,17.357
		c-25.405,17.406-50.15,35.704-74.183,54.859c8.168-26.398,13.149-54.143,14.498-82.769c0.329-6.998,0.45-14.046,0.34-21.142
		c-0.053-3.381-0.14-6.77-0.295-10.171c-0.391-8.589-1.104-17.088-2.123-25.486c-0.491-16.103-0.171-32.047,0.928-47.793
		c4.86-69.614,24.908-135.344,56.971-193.717c-47.832,16.32-92.098,40.053-131.499,69.779
		c-32.922,24.837-62.448,53.855-87.819,86.226c-17.273,22.039-32.623,45.628-45.806,70.513
		c-38.189,72.09-58.211,155.017-54.238,242.412c2.126,46.766,10.978,91.634,25.577,133.714c0.613,1.765,1.249,3.519,1.882,5.274
		c-16.209,21.346-31.756,43.222-46.617,65.593c-0.681-19.832-2.975-39.815-6.977-59.782c-1.59-7.937-3.45-15.871-5.585-23.792
		c-0.983-3.647-2.017-7.292-3.117-10.932c-2.75-9.101-5.82-18.017-9.193-26.741c-26.535-92.793-26.192-187.083-3.496-274.425
		c-46.813,30.461-87.795,67.896-121.941,110.431c-40.43,50.363-71.274,107.87-90.864,169.408
		c-30.913,97.11-33.807,204.251-2.099,309.177c14.967,49.528,36.627,95.198,63.689,136.322c5.29,8.039,10.811,15.88,16.505,23.566
		c-31.75,111.211-48.754,228.642-48.754,350.046c0,130.07,19.521,255.578,55.784,373.762
		c-222.703-126.748-380.092-355.027-409.177-621.86c-0.571,14.215-0.872,28.5-0.872,42.856
		c0,414.691,240.723,773.144,590.048,943.287C1041.258,2342.625,1130.708,2385.531,1230.813,2413.117z"/>
</g>
</svg>
