<?xml version="1.0" encoding="utf-8"?>
<!-- Generator: Adobe Illustrator 16.0.0, SVG Export Plug-In . SVG Version: 6.00 Build 0)  -->
<!DOCTYPE svg PUBLIC "-//W3C//DTD SVG 1.1//EN" "http://www.w3.org/Graphics/SVG/1.1/DTD/svg11.dtd">
<svg version="1.1" id="Layer_1" xmlns="http://www.w3.org/2000/svg" xmlns:xlink="http://www.w3.org/1999/xlink" x="0px" y="0px"
	 width="170.883px" height="156.764px" viewBox="0 0 170.883 156.764" enable-background="new 0 0 170.883 156.764"
	 xml:space="preserve">
<g>
	<path fill="#FFFFFF" d="M57.411,100.529c-10.537,7.015-15.229,21.695-12.958,28.311c-5.693-10.91-14.021-33.834,0.349-56.689
		c0.558-0.888,2.881-4.583,3.464-5.638c2.035-3.688,5.26-9.729,6.555-15.22c2.15-9.116-0.008-17.523,0.01-20.253
		c0.011-1.78,0.155-4.792,1.082-7.677c0.866-2.699,2.494-5.31,3.111-6.108c2.136-2.769,4.658-5.667,7.642-8.644
		c-6.708,2.564-20.704,24.527-23.946,30.673c-5.433,9.913-7.35,22.729-1.129,29.834c0.13,0.145,0.291,0.282,0.476,0.408
		c-17.135,26.486-5.537,53.052,0.392,63.437c3.961,6.938,8.298,11.522,11.146,14.092c-19.422-8.619-29.863-24.527-33.359-39.025
		C14.986,86.229,0,88.976,0,88.976s8.437,5.533,11.989,23.139c6.325,31.344,44.723,39.99,44.723,39.99s11.145,3.032,17.651,4.606
		c0.876,0.211,5.359-0.213,4.032-1.281c-3.577-2.877-10.159-7.321-12.024-9.187c-15.582-13.869-14.492-28.441-5.524-36.926
		c9.897-8.121,23.296-2.771,32.231-2.455c13.688,0.484,18.603-8.936,20-10.333c-0.252-0.181-4.739,3.809-16.667,4
		C81.577,100.767,71.744,91.862,57.411,100.529z"/>
	<path fill="#FFFFFF" d="M95.722,44.522c-3.016-1.736-6.844-4.398-10.229-5.341c-5.69-1.631-9.948,0.032-14.483,3.651
		c-4.336,3.465-10.277,8.616-6.047,9.985c8.078,1.894,18.444,1.604,24.989-0.228c1.365-0.383,4.734-1.253,8.662-1.71
		c2.761-0.318,17.793-0.215,29.188,1.05c6.357,0.705,11.762,2.797,12.834,2.91c-4.226-4.038-26.17-5.568-37.653-7.475
		C99.962,46.866,96.303,44.858,95.722,44.522z"/>
	<path fill="#FFFFFF" d="M162.662,21.207c-11.418-8.951-25.107-11.765-30.66-12.374c-2.059-0.229-8.383-1.093-10.389-1.414
		c-3.134-0.501-7.03-0.814-11.319-0.396c-10.558,0.468-22.668,7.154-25.098,16.9c-0.325,1.206-1.955,5.509,2.638,4.018
		c3.078-1.028,12.675-3.816,20.059-6.854c6.614-2.72,10.97-6.707,12.559-7.558c1.136-0.607,4.454-1.876,7.66-2.454
		c2.901-0.521,5.725-0.388,6.465-0.322c9.814,0.87,21.93,7.095,28.014,10.973C163.84,22.522,163.628,21.964,162.662,21.207z"/>
	<path fill="#FFFFFF" d="M59.131,42.541c0.203,0.688,0.948,2.12,1.701,2.623c0.922,0.617,5.227-3.156,6.432-4.194
		c5.834-5.034,10.359-7.345,13.372-14.681c1.454-3.643,3.903-9.691,6.439-13.364c0.698-1.011,2.018-2.643,3.973-4.242
		c1.995-1.633,4.631-3.226,5.931-3.707c6.049-2.25,15.085-4.424,27.437-4.426c-9.864-1.798-22.839,1.213-28.759,3.271
		c-2.532,0.881-8.132,2.929-10.098,3.613c-3.64,1.266-8.225,3.254-12.681,6.323C63.113,20.303,56.312,33.527,59.131,42.541z"/>
	<path fill="#FFFFFF" d="M112.548,21.778c-1.521,0.949-2.262,3.102-1.678,4.166c3.019,5.499,16.55,9.169,32.291,4.899
		c1.041-0.283,3.742-1.017,6.404-1.04c2.212-0.021,4.425,0.604,5.389,0.975c4.85,1.874,10.418,4.894,15.929,9.809
		c-4.015-6.593-21.48-14.068-22.868-14.978C141.401,21.271,124.798,14.138,112.548,21.778z"/>
	<path fill="#FFFFFF" d="M122.828,37.715c-4.998-2.751-9.26-5.725-12.285-7.393c-5.175-3.647-17.722-0.752-22.711,2.293
		c-3.19,1.865-0.961,3.459,0.965,4.767c7.088,4.543,16.46,6.065,23.876,5.741c2.48-0.11,12.982,0.351,17.657,0.512
		c3.743,0.126,10.676,0.829,17.896,2.675c5.67,1.453,9.397,3.232,13.884,5.647c-5.669-5.579-21.484-9.129-29.56-9.965
		C131.215,41.853,126.453,39.707,122.828,37.715z"/>
	<path fill="#FFFFFF" d="M48.89,70.141c-1.252,2.192-3.704,7.374,1.459,7.232c6.424-0.412,12.305-3.348,17.188-6.811
		c1.357-0.964,6.324-5.072,12.143-7.925c2.107-1.034,10.307-2.102,17.633-2.801c2.878-0.275,10.231-1.111,7.866-1.248
		c-1.501-0.087-3.223-0.168-4.956-0.172c-3.307-0.008-10.71-0.114-18.482-0.385c-8.45-0.437-15.352-1.797-20.35,0.449
		C54.749,61.47,50.921,66.574,48.89,70.141z"/>
</g>
</svg>
